<svg width="267" height="35" viewBox="0 0 267 35" fill="none" xmlns="http://www.w3.org/2000/svg">
<path d="M73.5166 20.9834H77.5449C77.4375 22.4092 77.042 23.6738 76.3584 24.7773C75.6748 25.8711 74.7227 26.7305 73.502 27.3555C72.2812 27.9805 70.8018 28.293 69.0635 28.293C67.7256 28.293 66.5195 28.0586 65.4453 27.5898C64.3809 27.1113 63.4678 26.4326 62.7061 25.5537C61.9541 24.665 61.3779 23.6006 60.9775 22.3604C60.5771 21.1104 60.377 19.709 60.377 18.1562V16.5303C60.377 14.9775 60.582 13.5762 60.9922 12.3262C61.4023 11.0762 61.9883 10.0117 62.75 9.13281C63.5215 8.24414 64.4443 7.56055 65.5186 7.08203C66.6025 6.60352 67.8135 6.36426 69.1514 6.36426C70.8896 6.36426 72.3594 6.68652 73.5605 7.33105C74.7617 7.96582 75.6943 8.83984 76.3584 9.95312C77.0225 11.0664 77.4229 12.3457 77.5596 13.791H73.5312C73.4531 12.8926 73.2578 12.1309 72.9453 11.5059C72.6426 10.8809 72.1836 10.4072 71.5684 10.085C70.9629 9.75293 70.1572 9.58691 69.1514 9.58691C68.3701 9.58691 67.6816 9.7334 67.0859 10.0264C66.5 10.3193 66.0117 10.7588 65.6211 11.3447C65.2305 11.9209 64.9375 12.6436 64.7422 13.5127C64.5469 14.3721 64.4492 15.3682 64.4492 16.501V18.1562C64.4492 19.2402 64.5371 20.2119 64.7129 21.0713C64.8887 21.9307 65.1621 22.6582 65.5332 23.2539C65.9043 23.8496 66.3828 24.3037 66.9688 24.6162C67.5547 24.9287 68.2529 25.085 69.0635 25.085C70.0498 25.085 70.8506 24.9287 71.4658 24.6162C72.0908 24.3037 72.5645 23.8447 72.8867 23.2393C73.2188 22.6338 73.4287 21.8818 73.5166 20.9834ZM88.165 21.291H83.1406L83.1113 18.6689H87.2422C87.8574 18.6689 88.3604 18.6055 88.751 18.4785C89.1416 18.3516 89.4297 18.1611 89.6152 17.9072C89.8105 17.6533 89.9082 17.3457 89.9082 16.9844C89.9082 16.6719 89.8496 16.4033 89.7324 16.1787C89.6152 15.9443 89.4395 15.7539 89.2051 15.6074C88.9805 15.4609 88.6924 15.3535 88.3408 15.2852C87.999 15.207 87.5986 15.168 87.1396 15.168H84.5176V28H80.6357V12.1504H87.1396C88.165 12.1504 89.0879 12.2432 89.9082 12.4287C90.7285 12.6045 91.4268 12.873 92.0029 13.2344C92.5791 13.5957 93.0186 14.0547 93.3213 14.6113C93.6338 15.1582 93.79 15.8027 93.79 16.5449C93.79 17.0332 93.6826 17.4922 93.4678 17.9219C93.2529 18.3516 92.9355 18.7324 92.5156 19.0645C92.0957 19.3965 91.5781 19.6699 90.9629 19.8848C90.3477 20.0898 89.6445 20.2168 88.8535 20.2656L88.165 21.291ZM88.165 28H82.1006L83.5361 24.9824H88.165C88.7314 24.9824 89.2002 24.9141 89.5713 24.7773C89.9424 24.6309 90.2158 24.4209 90.3916 24.1475C90.5771 23.874 90.6699 23.542 90.6699 23.1514C90.6699 22.7705 90.582 22.4434 90.4062 22.1699C90.2402 21.8867 89.9717 21.6719 89.6006 21.5254C89.2393 21.3691 88.7607 21.291 88.165 21.291H84.166L84.1953 18.6689H88.8389L89.8643 19.709C90.9189 19.7773 91.793 19.9922 92.4863 20.3535C93.1797 20.7051 93.6973 21.1543 94.0391 21.7012C94.3809 22.2383 94.5518 22.8291 94.5518 23.4736C94.5518 24.2256 94.4102 24.8848 94.127 25.4512C93.8438 26.0176 93.4287 26.4912 92.8818 26.8721C92.335 27.2432 91.666 27.5264 90.875 27.7217C90.084 27.9072 89.1807 28 88.165 28ZM100.733 20.1777H104.703L100.25 28H96.2803L100.733 20.1777ZM103.429 12.1504H110.313V28H106.446V15.168H103.429C102.813 15.168 102.301 15.2803 101.891 15.5049C101.49 15.7295 101.192 16.0176 100.997 16.3691C100.802 16.7109 100.704 17.0625 100.704 17.4238C100.704 17.7754 100.797 18.1172 100.982 18.4492C101.168 18.7812 101.451 19.0547 101.832 19.2695C102.223 19.4844 102.711 19.5918 103.297 19.5918H107.823V22.3164H103.297C102.291 22.3164 101.388 22.1943 100.587 21.9502C99.7959 21.6963 99.1172 21.3447 98.5508 20.8955C97.9941 20.4463 97.5693 19.9189 97.2764 19.3135C96.9834 18.6982 96.8369 18.0293 96.8369 17.3066C96.8369 16.5645 96.9834 15.8809 97.2764 15.2559C97.5791 14.6309 98.0137 14.084 98.5801 13.6152C99.1562 13.1465 99.8496 12.7852 100.66 12.5312C101.48 12.2773 102.403 12.1504 103.429 12.1504ZM120.89 20.4414H117.799V18.5957H120.157C120.733 18.5957 121.192 18.5176 121.534 18.3613C121.886 18.2051 122.135 17.9854 122.281 17.7021C122.438 17.4189 122.516 17.0918 122.516 16.7207C122.516 16.3887 122.442 16.0762 122.296 15.7832C122.149 15.4805 121.905 15.2363 121.563 15.0508C121.222 14.8555 120.748 14.7578 120.143 14.7578C119.645 14.7578 119.2 14.8359 118.81 14.9922C118.419 15.1484 118.111 15.3682 117.887 15.6514C117.662 15.9346 117.55 16.2715 117.55 16.6621H113.668C113.668 15.666 113.951 14.8115 114.518 14.0986C115.094 13.3857 115.86 12.8389 116.817 12.458C117.774 12.0674 118.824 11.8721 119.967 11.8721C120.953 11.8721 121.842 11.9746 122.633 12.1797C123.424 12.375 124.098 12.668 124.654 13.0586C125.211 13.4492 125.641 13.9326 125.943 14.5088C126.246 15.0752 126.397 15.7344 126.397 16.4863C126.397 17.0234 126.271 17.5312 126.017 18.0098C125.763 18.4883 125.396 18.9131 124.918 19.2842C124.439 19.6455 123.858 19.9287 123.175 20.1338C122.501 20.3389 121.739 20.4414 120.89 20.4414ZM117.799 19.3867H120.89C121.837 19.3867 122.667 19.4795 123.38 19.665C124.103 19.8408 124.708 20.1045 125.196 20.4561C125.685 20.8076 126.051 21.2422 126.295 21.7598C126.549 22.2676 126.676 22.8535 126.676 23.5176C126.676 24.2695 126.51 24.9434 126.178 25.5391C125.855 26.125 125.396 26.623 124.801 27.0332C124.205 27.4434 123.497 27.7559 122.677 27.9707C121.856 28.1855 120.953 28.293 119.967 28.293C118.902 28.293 117.867 28.1172 116.861 27.7656C115.865 27.4141 115.04 26.8721 114.386 26.1396C113.741 25.4072 113.419 24.4648 113.419 23.3125H117.301C117.301 23.6836 117.413 24.0303 117.638 24.3525C117.862 24.6748 118.185 24.9336 118.604 25.1289C119.034 25.3145 119.552 25.4072 120.157 25.4072C120.772 25.4072 121.275 25.3096 121.666 25.1143C122.057 24.9189 122.34 24.6602 122.516 24.3379C122.701 24.0059 122.794 23.6592 122.794 23.2979C122.794 22.7998 122.696 22.3994 122.501 22.0967C122.315 21.7842 122.022 21.5547 121.622 21.4082C121.231 21.2617 120.743 21.1885 120.157 21.1885H117.799V19.3867ZM138.204 24.6309V17.3213C138.204 16.7842 138.111 16.3203 137.926 15.9297C137.74 15.5391 137.457 15.2363 137.076 15.0215C136.695 14.8066 136.212 14.6992 135.626 14.6992C135.108 14.6992 134.654 14.7871 134.264 14.9629C133.883 15.1387 133.59 15.3877 133.385 15.71C133.18 16.0225 133.077 16.3838 133.077 16.7939H129.195C129.195 16.1396 129.352 15.5195 129.664 14.9336C129.977 14.3379 130.421 13.8105 130.997 13.3516C131.583 12.8828 132.281 12.5166 133.092 12.2529C133.912 11.9893 134.83 11.8574 135.846 11.8574C137.047 11.8574 138.116 12.0625 139.054 12.4727C140.001 12.873 140.743 13.4785 141.28 14.2891C141.827 15.0996 142.101 16.1201 142.101 17.3506V24.2646C142.101 25.0557 142.149 25.7344 142.247 26.3008C142.354 26.8574 142.511 27.3408 142.716 27.751V28H138.775C138.59 27.5996 138.448 27.0918 138.351 26.4766C138.253 25.8516 138.204 25.2363 138.204 24.6309ZM138.746 18.3467L138.775 20.6465H136.329C135.724 20.6465 135.191 20.71 134.732 20.8369C134.273 20.9541 133.897 21.1299 133.604 21.3643C133.312 21.5889 133.092 21.8623 132.945 22.1846C132.799 22.4971 132.726 22.8535 132.726 23.2539C132.726 23.6445 132.813 23.9961 132.989 24.3086C133.175 24.6211 133.438 24.8701 133.78 25.0557C134.132 25.2314 134.542 25.3193 135.011 25.3193C135.694 25.3193 136.29 25.1826 136.798 24.9092C137.306 24.626 137.701 24.2842 137.984 23.8838C138.268 23.4834 138.419 23.1025 138.438 22.7412L139.552 24.4111C139.415 24.8115 139.21 25.2363 138.937 25.6855C138.663 26.1348 138.312 26.5547 137.882 26.9453C137.452 27.3359 136.935 27.6582 136.329 27.9121C135.724 28.166 135.021 28.293 134.22 28.293C133.194 28.293 132.276 28.0879 131.466 27.6777C130.655 27.2676 130.016 26.7061 129.547 25.9932C129.078 25.2803 128.844 24.4697 128.844 23.5615C128.844 22.7217 129 21.9795 129.312 21.335C129.625 20.6904 130.089 20.1484 130.704 19.709C131.319 19.2598 132.081 18.9229 132.989 18.6982C133.907 18.4639 134.957 18.3467 136.139 18.3467H138.746ZM153.043 12.1504V28H149.161V12.1504H153.043ZM158.199 12.1504V15.168H144.093V12.1504H158.199ZM163.224 17.0283H167.853C169.259 17.0283 170.455 17.2627 171.441 17.7314C172.438 18.1904 173.194 18.835 173.712 19.665C174.239 20.4854 174.503 21.4375 174.503 22.5215C174.503 23.3027 174.352 24.0303 174.049 24.7041C173.756 25.3682 173.326 25.9492 172.76 26.4473C172.193 26.9355 171.495 27.3164 170.665 27.5898C169.845 27.8633 168.907 28 167.853 28H160.733V12.1504H164.615V24.9678H167.853C168.526 24.9678 169.063 24.8555 169.464 24.6309C169.874 24.3965 170.167 24.0986 170.343 23.7373C170.528 23.3662 170.621 22.9707 170.621 22.5508C170.621 22.1211 170.528 21.7207 170.343 21.3496C170.167 20.9688 169.874 20.6611 169.464 20.4268C169.063 20.1924 168.526 20.0752 167.853 20.0752H163.224V17.0283ZM183.614 25.2461C184.161 25.2461 184.649 25.1387 185.079 24.9238C185.509 24.709 185.851 24.4062 186.104 24.0156C186.368 23.625 186.51 23.1709 186.529 22.6533H190.177C190.157 23.7275 189.854 24.6895 189.269 25.5391C188.683 26.3887 187.901 27.0625 186.925 27.5605C185.958 28.0488 184.874 28.293 183.673 28.293C182.452 28.293 181.388 28.0879 180.479 27.6777C179.571 27.2676 178.814 26.6963 178.209 25.9639C177.613 25.2314 177.164 24.3818 176.861 23.415C176.568 22.4482 176.422 21.4131 176.422 20.3096V19.8408C176.422 18.7373 176.568 17.7021 176.861 16.7354C177.164 15.7686 177.613 14.9189 178.209 14.1865C178.814 13.4541 179.571 12.8828 180.479 12.4727C181.388 12.0625 182.447 11.8574 183.658 11.8574C184.938 11.8574 186.061 12.1064 187.027 12.6045C188.004 13.1025 188.766 13.8057 189.312 14.7139C189.869 15.6221 190.157 16.6914 190.177 17.9219H186.529C186.51 17.3555 186.383 16.8477 186.148 16.3984C185.914 15.9492 185.582 15.5879 185.152 15.3145C184.723 15.041 184.2 14.9043 183.585 14.9043C182.931 14.9043 182.384 15.041 181.944 15.3145C181.515 15.5879 181.178 15.9639 180.934 16.4424C180.699 16.9111 180.533 17.4385 180.436 18.0244C180.348 18.6006 180.304 19.2061 180.304 19.8408V20.3096C180.304 20.9541 180.348 21.5693 180.436 22.1553C180.533 22.7412 180.699 23.2686 180.934 23.7373C181.178 24.1963 181.515 24.5625 181.944 24.8359C182.384 25.1094 182.94 25.2461 183.614 25.2461ZM196.124 20.1777H200.094L195.641 28H191.671L196.124 20.1777ZM198.819 12.1504H205.704V28H201.837V15.168H198.819C198.204 15.168 197.691 15.2803 197.281 15.5049C196.881 15.7295 196.583 16.0176 196.388 16.3691C196.192 16.7109 196.095 17.0625 196.095 17.4238C196.095 17.7754 196.188 18.1172 196.373 18.4492C196.559 18.7812 196.842 19.0547 197.223 19.2695C197.613 19.4844 198.102 19.5918 198.688 19.5918H203.214V22.3164H198.688C197.682 22.3164 196.778 22.1943 195.978 21.9502C195.187 21.6963 194.508 21.3447 193.941 20.8955C193.385 20.4463 192.96 19.9189 192.667 19.3135C192.374 18.6982 192.228 18.0293 192.228 17.3066C192.228 16.5645 192.374 15.8809 192.667 15.2559C192.97 14.6309 193.404 14.084 193.971 13.6152C194.547 13.1465 195.24 12.7852 196.051 12.5312C196.871 12.2773 197.794 12.1504 198.819 12.1504Z" fill="white"/>
<rect y="17" width="44" height="2" rx="1" fill="white"/>
<rect x="223" y="17" width="44" height="2" rx="1" fill="white"/>
</svg>
