<svg width="273" height="35" viewBox="0 0 273 35" fill="none" xmlns="http://www.w3.org/2000/svg">
<path d="M73.5166 20.9834H77.5449C77.4375 22.4092 77.042 23.6738 76.3584 24.7773C75.6748 25.8711 74.7227 26.7305 73.502 27.3555C72.2812 27.9805 70.8018 28.293 69.0635 28.293C67.7256 28.293 66.5195 28.0586 65.4453 27.5898C64.3809 27.1113 63.4678 26.4326 62.7061 25.5537C61.9541 24.665 61.3779 23.6006 60.9775 22.3604C60.5771 21.1104 60.377 19.709 60.377 18.1562V16.5303C60.377 14.9775 60.582 13.5762 60.9922 12.3262C61.4023 11.0762 61.9883 10.0117 62.75 9.13281C63.5215 8.24414 64.4443 7.56055 65.5186 7.08203C66.6025 6.60352 67.8135 6.36426 69.1514 6.36426C70.8896 6.36426 72.3594 6.68652 73.5605 7.33105C74.7617 7.96582 75.6943 8.83984 76.3584 9.95312C77.0225 11.0664 77.4229 12.3457 77.5596 13.791H73.5312C73.4531 12.8926 73.2578 12.1309 72.9453 11.5059C72.6426 10.8809 72.1836 10.4072 71.5684 10.085C70.9629 9.75293 70.1572 9.58691 69.1514 9.58691C68.3701 9.58691 67.6816 9.7334 67.0859 10.0264C66.5 10.3193 66.0117 10.7588 65.6211 11.3447C65.2305 11.9209 64.9375 12.6436 64.7422 13.5127C64.5469 14.3721 64.4492 15.3682 64.4492 16.501V18.1562C64.4492 19.2402 64.5371 20.2119 64.7129 21.0713C64.8887 21.9307 65.1621 22.6582 65.5332 23.2539C65.9043 23.8496 66.3828 24.3037 66.9688 24.6162C67.5547 24.9287 68.2529 25.085 69.0635 25.085C70.0498 25.085 70.8506 24.9287 71.4658 24.6162C72.0908 24.3037 72.5645 23.8447 72.8867 23.2393C73.2188 22.6338 73.4287 21.8818 73.5166 20.9834ZM79.6836 20.2363V19.9287C79.6836 18.7666 79.8496 17.6973 80.1816 16.7207C80.5137 15.7344 80.9971 14.8799 81.6318 14.1572C82.2666 13.4346 83.043 12.873 83.9609 12.4727C84.8789 12.0625 85.9238 11.8574 87.0957 11.8574C88.2871 11.8574 89.3418 12.0625 90.2598 12.4727C91.1875 12.873 91.9688 13.4346 92.6035 14.1572C93.2383 14.8799 93.7217 15.7344 94.0537 16.7207C94.3857 17.6973 94.5518 18.7666 94.5518 19.9287V20.2363C94.5518 21.3887 94.3857 22.458 94.0537 23.4443C93.7217 24.4209 93.2383 25.2754 92.6035 26.0078C91.9688 26.7305 91.1924 27.292 90.2744 27.6924C89.3564 28.0928 88.3066 28.293 87.125 28.293C85.9531 28.293 84.9033 28.0928 83.9756 27.6924C83.0479 27.292 82.2666 26.7305 81.6318 26.0078C80.9971 25.2754 80.5137 24.4209 80.1816 23.4443C79.8496 22.458 79.6836 21.3887 79.6836 20.2363ZM83.5508 19.9287V20.2363C83.5508 20.9297 83.6191 21.5791 83.7559 22.1846C83.8926 22.79 84.1025 23.3223 84.3857 23.7812C84.6689 24.2402 85.0352 24.6016 85.4844 24.8652C85.9434 25.1191 86.4902 25.2461 87.125 25.2461C87.75 25.2461 88.2871 25.1191 88.7363 24.8652C89.1855 24.6016 89.5518 24.2402 89.835 23.7812C90.1279 23.3223 90.3428 22.79 90.4795 22.1846C90.6162 21.5791 90.6846 20.9297 90.6846 20.2363V19.9287C90.6846 19.2451 90.6162 18.6055 90.4795 18.0098C90.3428 17.4043 90.1279 16.8721 89.835 16.4131C89.5518 15.9443 89.1807 15.5781 88.7217 15.3145C88.2725 15.041 87.7305 14.9043 87.0957 14.9043C86.4707 14.9043 85.9336 15.041 85.4844 15.3145C85.0352 15.5781 84.6689 15.9443 84.3857 16.4131C84.1025 16.8721 83.8926 17.4043 83.7559 18.0098C83.6191 18.6055 83.5508 19.2451 83.5508 19.9287ZM101.158 15.5342V28H97.291V12.1504H100.924L101.158 15.5342ZM100.543 19.5039H99.4004C99.4102 18.3516 99.5664 17.3066 99.8691 16.3691C100.172 15.4316 100.597 14.626 101.144 13.9521C101.7 13.2783 102.359 12.7607 103.121 12.3994C103.883 12.0381 104.732 11.8574 105.67 11.8574C106.432 11.8574 107.12 11.9648 107.735 12.1797C108.351 12.3945 108.878 12.7363 109.317 13.2051C109.767 13.6738 110.108 14.2891 110.343 15.0508C110.587 15.8027 110.709 16.7305 110.709 17.834V28H106.812V17.8047C106.812 17.082 106.705 16.5107 106.49 16.0908C106.285 15.6709 105.982 15.373 105.582 15.1973C105.191 15.0215 104.708 14.9336 104.132 14.9336C103.536 14.9336 103.014 15.0557 102.564 15.2998C102.125 15.5342 101.754 15.8613 101.451 16.2812C101.158 16.7012 100.934 17.1846 100.777 17.7314C100.621 18.2783 100.543 18.8691 100.543 19.5039ZM121.622 12.1504V14.9336H112.54V12.1504H121.622ZM114.972 8.25391H118.854V23.4297C118.854 23.8984 118.917 24.2598 119.044 24.5137C119.171 24.7676 119.361 24.9385 119.615 25.0264C119.869 25.1143 120.172 25.1582 120.523 25.1582C120.777 25.1582 121.012 25.1436 121.227 25.1143C121.441 25.085 121.622 25.0557 121.769 25.0264L121.783 27.9268C121.461 28.0342 121.095 28.1221 120.685 28.1904C120.284 28.2588 119.83 28.293 119.322 28.293C118.453 28.293 117.691 28.1465 117.037 27.8535C116.383 27.5508 115.875 27.0674 115.514 26.4033C115.152 25.7295 114.972 24.8408 114.972 23.7373V8.25391ZM132.931 24.6309V17.3213C132.931 16.7842 132.838 16.3203 132.652 15.9297C132.467 15.5391 132.184 15.2363 131.803 15.0215C131.422 14.8066 130.938 14.6992 130.353 14.6992C129.835 14.6992 129.381 14.7871 128.99 14.9629C128.609 15.1387 128.316 15.3877 128.111 15.71C127.906 16.0225 127.804 16.3838 127.804 16.7939H123.922C123.922 16.1396 124.078 15.5195 124.391 14.9336C124.703 14.3379 125.147 13.8105 125.724 13.3516C126.31 12.8828 127.008 12.5166 127.818 12.2529C128.639 11.9893 129.557 11.8574 130.572 11.8574C131.773 11.8574 132.843 12.0625 133.78 12.4727C134.728 12.873 135.47 13.4785 136.007 14.2891C136.554 15.0996 136.827 16.1201 136.827 17.3506V24.2646C136.827 25.0557 136.876 25.7344 136.974 26.3008C137.081 26.8574 137.237 27.3408 137.442 27.751V28H133.502C133.316 27.5996 133.175 27.0918 133.077 26.4766C132.979 25.8516 132.931 25.2363 132.931 24.6309ZM133.473 18.3467L133.502 20.6465H131.056C130.45 20.6465 129.918 20.71 129.459 20.8369C129 20.9541 128.624 21.1299 128.331 21.3643C128.038 21.5889 127.818 21.8623 127.672 22.1846C127.525 22.4971 127.452 22.8535 127.452 23.2539C127.452 23.6445 127.54 23.9961 127.716 24.3086C127.901 24.6211 128.165 24.8701 128.507 25.0557C128.858 25.2314 129.269 25.3193 129.737 25.3193C130.421 25.3193 131.017 25.1826 131.524 24.9092C132.032 24.626 132.428 24.2842 132.711 23.8838C132.994 23.4834 133.146 23.1025 133.165 22.7412L134.278 24.4111C134.142 24.8115 133.937 25.2363 133.663 25.6855C133.39 26.1348 133.038 26.5547 132.608 26.9453C132.179 27.3359 131.661 27.6582 131.056 27.9121C130.45 28.166 129.747 28.293 128.946 28.293C127.921 28.293 127.003 28.0879 126.192 27.6777C125.382 27.2676 124.742 26.7061 124.273 25.9932C123.805 25.2803 123.57 24.4697 123.57 23.5615C123.57 22.7217 123.727 21.9795 124.039 21.335C124.352 20.6904 124.815 20.1484 125.431 19.709C126.046 19.2598 126.808 18.9229 127.716 18.6982C128.634 18.4639 129.684 18.3467 130.865 18.3467H133.473ZM146.817 25.2461C147.364 25.2461 147.853 25.1387 148.282 24.9238C148.712 24.709 149.054 24.4062 149.308 24.0156C149.571 23.625 149.713 23.1709 149.732 22.6533H153.38C153.36 23.7275 153.058 24.6895 152.472 25.5391C151.886 26.3887 151.104 27.0625 150.128 27.5605C149.161 28.0488 148.077 28.293 146.876 28.293C145.655 28.293 144.591 28.0879 143.683 27.6777C142.774 27.2676 142.018 26.6963 141.412 25.9639C140.816 25.2314 140.367 24.3818 140.064 23.415C139.771 22.4482 139.625 21.4131 139.625 20.3096V19.8408C139.625 18.7373 139.771 17.7021 140.064 16.7354C140.367 15.7686 140.816 14.9189 141.412 14.1865C142.018 13.4541 142.774 12.8828 143.683 12.4727C144.591 12.0625 145.65 11.8574 146.861 11.8574C148.141 11.8574 149.264 12.1064 150.23 12.6045C151.207 13.1025 151.969 13.8057 152.516 14.7139C153.072 15.6221 153.36 16.6914 153.38 17.9219H149.732C149.713 17.3555 149.586 16.8477 149.352 16.3984C149.117 15.9492 148.785 15.5879 148.355 15.3145C147.926 15.041 147.403 14.9043 146.788 14.9043C146.134 14.9043 145.587 15.041 145.147 15.3145C144.718 15.5879 144.381 15.9639 144.137 16.4424C143.902 16.9111 143.736 17.4385 143.639 18.0244C143.551 18.6006 143.507 19.2061 143.507 19.8408V20.3096C143.507 20.9541 143.551 21.5693 143.639 22.1553C143.736 22.7412 143.902 23.2686 144.137 23.7373C144.381 24.1963 144.718 24.5625 145.147 24.8359C145.587 25.1094 146.144 25.2461 146.817 25.2461ZM163.458 12.1504V14.9336H154.376V12.1504H163.458ZM156.808 8.25391H160.689V23.4297C160.689 23.8984 160.753 24.2598 160.88 24.5137C161.007 24.7676 161.197 24.9385 161.451 25.0264C161.705 25.1143 162.008 25.1582 162.359 25.1582C162.613 25.1582 162.848 25.1436 163.062 25.1143C163.277 25.085 163.458 25.0557 163.604 25.0264L163.619 27.9268C163.297 28.0342 162.931 28.1221 162.521 28.1904C162.12 28.2588 161.666 28.293 161.158 28.293C160.289 28.293 159.527 28.1465 158.873 27.8535C158.219 27.5508 157.711 27.0674 157.35 26.4033C156.988 25.7295 156.808 24.8408 156.808 23.7373V8.25391ZM177.359 15.4023V28H173.492V12.1504H177.14L177.359 15.4023ZM176.788 19.5039H175.602C175.602 18.4004 175.733 17.3848 175.997 16.457C176.271 15.5293 176.671 14.7236 177.198 14.04C177.726 13.3467 178.375 12.8096 179.146 12.4287C179.928 12.0479 180.831 11.8574 181.856 11.8574C182.569 11.8574 183.224 11.9648 183.819 12.1797C184.415 12.3848 184.928 12.7119 185.357 13.1611C185.797 13.6006 186.134 14.1768 186.368 14.8896C186.603 15.5928 186.72 16.4375 186.72 17.4238V28H182.853V17.8193C182.853 17.0771 182.745 16.4961 182.53 16.0762C182.325 15.6562 182.027 15.3633 181.637 15.1973C181.246 15.0215 180.777 14.9336 180.23 14.9336C179.625 14.9336 179.103 15.0557 178.663 15.2998C178.233 15.5342 177.877 15.8613 177.594 16.2812C177.32 16.7012 177.115 17.1846 176.979 17.7314C176.852 18.2783 176.788 18.8691 176.788 19.5039ZM186.427 18.7861L184.83 19.0791C184.84 18.083 184.977 17.1504 185.24 16.2812C185.504 15.4023 185.89 14.6357 186.397 13.9814C186.915 13.3174 187.555 12.7998 188.316 12.4287C189.088 12.0479 189.977 11.8574 190.982 11.8574C191.764 11.8574 192.467 11.9697 193.092 12.1943C193.727 12.4092 194.269 12.7559 194.718 13.2344C195.167 13.7031 195.509 14.3135 195.743 15.0654C195.987 15.8174 196.109 16.7354 196.109 17.8193V28H192.213V17.8047C192.213 17.0332 192.105 16.4424 191.891 16.0322C191.686 15.6221 191.388 15.3389 190.997 15.1826C190.606 15.0166 190.147 14.9336 189.62 14.9336C189.083 14.9336 188.614 15.0361 188.214 15.2412C187.823 15.4365 187.491 15.71 187.218 16.0615C186.954 16.4131 186.754 16.8232 186.617 17.292C186.49 17.751 186.427 18.249 186.427 18.7861ZM206.7 28.293C205.499 28.293 204.42 28.0977 203.463 27.707C202.506 27.3164 201.69 26.7744 201.017 26.0811C200.353 25.3779 199.84 24.5625 199.479 23.6348C199.127 22.6973 198.951 21.6914 198.951 20.6172V20.0312C198.951 18.8105 199.127 17.7021 199.479 16.7061C199.83 15.7002 200.328 14.8359 200.973 14.1133C201.617 13.3906 202.389 12.834 203.287 12.4434C204.186 12.0527 205.177 11.8574 206.261 11.8574C207.384 11.8574 208.375 12.0479 209.234 12.4287C210.094 12.7998 210.812 13.3271 211.388 14.0107C211.964 14.6943 212.398 15.5146 212.691 16.4717C212.984 17.4189 213.131 18.4688 213.131 19.6211V21.2471H200.709V18.5811H209.322V18.2881C209.303 17.6729 209.186 17.1113 208.971 16.6035C208.756 16.0859 208.424 15.6758 207.975 15.373C207.525 15.0605 206.944 14.9043 206.231 14.9043C205.655 14.9043 205.152 15.0312 204.723 15.2852C204.303 15.5293 203.951 15.8809 203.668 16.3398C203.395 16.7891 203.189 17.3262 203.053 17.9512C202.916 18.5762 202.848 19.2695 202.848 20.0312V20.6172C202.848 21.2812 202.936 21.8965 203.111 22.4629C203.297 23.0293 203.565 23.5225 203.917 23.9424C204.278 24.3525 204.708 24.6748 205.206 24.9092C205.714 25.1338 206.29 25.2461 206.935 25.2461C207.745 25.2461 208.478 25.0898 209.132 24.7773C209.796 24.4551 210.372 23.9814 210.86 23.3564L212.809 25.3779C212.477 25.8662 212.027 26.335 211.461 26.7842C210.904 27.2334 210.23 27.5996 209.439 27.8828C208.648 28.1562 207.735 28.293 206.7 28.293Z" fill="white"/>
<rect y="17" width="44" height="2" rx="1" fill="white"/>
<rect x="229" y="17" width="44" height="2" rx="1" fill="white"/>
</svg>
