<svg width="200" height="200" viewBox="0 0 200 200" fill="none" xmlns="http://www.w3.org/2000/svg">
<rect width="200" height="200" rx="10" fill="#D23C3C"/>
<path d="M24.1113 134.266L26.3086 126.434H28.0957L27.5195 129.51L25.3223 137H23.8281L24.1113 134.266ZM22.998 126.434L24.5703 134.256L24.7168 137H22.959L20.2832 126.434H22.998ZM30.1074 134.129L31.6406 126.434H34.3652L31.6895 137H29.9414L30.1074 134.129ZM28.3398 126.434L30.5273 134.207L30.8301 137H29.3262L27.1289 129.52L26.5723 126.434H28.3398ZM40.6445 137.195C39.8242 137.195 39.0885 137.065 38.4375 136.805C37.7865 136.538 37.2331 136.17 36.7773 135.701C36.3281 135.232 35.9831 134.689 35.7422 134.07C35.5013 133.445 35.3809 132.781 35.3809 132.078V131.688C35.3809 130.887 35.4948 130.154 35.7227 129.49C35.9505 128.826 36.276 128.25 36.6992 127.762C37.1289 127.273 37.6497 126.899 38.2617 126.639C38.8737 126.372 39.5638 126.238 40.332 126.238C41.0807 126.238 41.7448 126.362 42.3242 126.609C42.9036 126.857 43.3887 127.208 43.7793 127.664C44.1764 128.12 44.4759 128.667 44.6777 129.305C44.8796 129.936 44.9805 130.639 44.9805 131.414V132.586H36.582V130.711H42.2168V130.496C42.2168 130.105 42.1452 129.757 42.002 129.451C41.8652 129.139 41.6569 128.891 41.377 128.709C41.097 128.527 40.7389 128.436 40.3027 128.436C39.9316 128.436 39.6126 128.517 39.3457 128.68C39.0788 128.842 38.8607 129.07 38.6914 129.363C38.5286 129.656 38.4049 130.001 38.3203 130.398C38.2422 130.789 38.2031 131.219 38.2031 131.688V132.078C38.2031 132.501 38.2617 132.892 38.3789 133.25C38.5026 133.608 38.6751 133.917 38.8965 134.178C39.1243 134.438 39.3978 134.64 39.7168 134.783C40.0423 134.926 40.4102 134.998 40.8203 134.998C41.3281 134.998 41.8001 134.9 42.2363 134.705C42.679 134.503 43.0599 134.201 43.3789 133.797L44.7461 135.281C44.5247 135.6 44.222 135.906 43.8379 136.199C43.4603 136.492 43.0046 136.733 42.4707 136.922C41.9368 137.104 41.3281 137.195 40.6445 137.195ZM46.582 122H49.3945V134.578L49.1113 137H46.582V122ZM56.084 131.609V131.814C56.084 132.602 55.9993 133.325 55.8301 133.982C55.6673 134.64 55.4134 135.21 55.0684 135.691C54.7233 136.167 54.2936 136.538 53.7793 136.805C53.2715 137.065 52.6725 137.195 51.9824 137.195C51.3379 137.195 50.778 137.065 50.3027 136.805C49.834 136.544 49.4401 136.176 49.1211 135.701C48.8021 135.226 48.5449 134.669 48.3496 134.031C48.1543 133.393 48.0078 132.697 47.9102 131.941V131.492C48.0078 130.737 48.1543 130.04 48.3496 129.402C48.5449 128.764 48.8021 128.208 49.1211 127.732C49.4401 127.257 49.834 126.889 50.3027 126.629C50.7715 126.368 51.3249 126.238 51.9629 126.238C52.6595 126.238 53.265 126.372 53.7793 126.639C54.3001 126.899 54.7298 127.27 55.0684 127.752C55.4134 128.227 55.6673 128.794 55.8301 129.451C55.9993 130.102 56.084 130.822 56.084 131.609ZM53.2715 131.814V131.609C53.2715 131.18 53.2389 130.776 53.1738 130.398C53.1152 130.014 53.0111 129.679 52.8613 129.393C52.7116 129.1 52.5065 128.868 52.2461 128.699C51.9922 128.53 51.6634 128.445 51.2598 128.445C50.8757 128.445 50.5501 128.51 50.2832 128.641C50.0163 128.771 49.7949 128.953 49.6191 129.188C49.4499 129.422 49.3229 129.702 49.2383 130.027C49.1536 130.346 49.1016 130.698 49.082 131.082V132.361C49.1016 132.876 49.1862 133.331 49.3359 133.729C49.4922 134.119 49.7266 134.428 50.0391 134.656C50.3581 134.878 50.7715 134.988 51.2793 134.988C51.6764 134.988 52.0052 134.91 52.2656 134.754C52.526 134.598 52.7279 134.376 52.8711 134.09C53.0208 133.803 53.125 133.468 53.1836 133.084C53.2422 132.693 53.2715 132.27 53.2715 131.814ZM73.8184 131.775C73.7923 132.439 73.6947 133.094 73.5254 133.738C73.3561 134.383 73.099 134.965 72.7539 135.486C72.4154 136.007 71.9824 136.424 71.4551 136.736C70.9277 137.049 70.2897 137.205 69.541 137.205C69.1178 137.205 68.737 137.13 68.3984 136.98C68.0599 136.831 67.7734 136.619 67.5391 136.346C67.3047 136.066 67.1322 135.73 67.0215 135.34C66.9108 134.949 66.8717 134.51 66.9043 134.021L67.4023 128.396H69.3555L68.8672 134.021C68.8281 134.36 68.8314 134.637 68.877 134.852C68.929 135.066 69.0072 135.232 69.1113 135.35C69.222 135.467 69.3457 135.551 69.4824 135.604C69.6257 135.649 69.7656 135.672 69.9023 135.672C70.2148 135.672 70.5013 135.574 70.7617 135.379C71.0221 135.184 71.2467 134.913 71.4355 134.568C71.6243 134.223 71.7741 133.82 71.8848 133.357C71.9954 132.889 72.0573 132.384 72.0703 131.844C72.1159 130.978 72.0736 130.177 71.9434 129.441C71.8197 128.706 71.6048 128.048 71.2988 127.469C70.9993 126.883 70.6087 126.388 70.127 125.984C69.6452 125.574 69.0723 125.262 68.4082 125.047C67.7441 124.826 66.9857 124.715 66.1328 124.715C65.332 124.715 64.5931 124.839 63.916 125.086C63.2454 125.333 62.6432 125.688 62.1094 126.15C61.582 126.613 61.1263 127.166 60.7422 127.811C60.3646 128.449 60.0651 129.161 59.8438 129.949C59.6289 130.73 59.502 131.57 59.4629 132.469C59.4173 133.413 59.4661 134.272 59.6094 135.047C59.7591 135.822 59.9967 136.502 60.3223 137.088C60.6543 137.68 61.0677 138.175 61.5625 138.572C62.0573 138.969 62.6335 139.269 63.291 139.471C63.9486 139.673 64.681 139.773 65.4883 139.773C66.0547 139.773 66.6309 139.708 67.2168 139.578C67.8092 139.454 68.3073 139.295 68.7109 139.1L69.082 140.555C68.6263 140.848 68.0566 141.066 67.373 141.209C66.696 141.352 66.0547 141.424 65.4492 141.424C64.4141 141.424 63.4701 141.297 62.6172 141.043C61.7708 140.796 61.0221 140.424 60.3711 139.93C59.7201 139.441 59.1764 138.836 58.7402 138.113C58.3105 137.391 57.9915 136.557 57.7832 135.613C57.5814 134.669 57.5033 133.621 57.5488 132.469C57.5944 131.401 57.7604 130.395 58.0469 129.451C58.3333 128.507 58.724 127.651 59.2188 126.883C59.7135 126.115 60.306 125.454 60.9961 124.9C61.6927 124.34 62.474 123.911 63.3398 123.611C64.2057 123.312 65.1497 123.162 66.1719 123.162C67.1875 123.162 68.1087 123.296 68.9355 123.562C69.7689 123.829 70.498 124.214 71.123 124.715C71.748 125.21 72.2689 125.812 72.6855 126.521C73.1022 127.225 73.4049 128.019 73.5938 128.904C73.7826 129.79 73.8574 130.747 73.8184 131.775ZM63.9551 132.801C63.9225 133.23 63.9258 133.611 63.9648 133.943C64.0039 134.275 64.0788 134.555 64.1895 134.783C64.3001 135.011 64.4434 135.184 64.6191 135.301C64.8014 135.411 65.0163 135.467 65.2637 135.467C65.4004 135.467 65.5501 135.434 65.7129 135.369C65.8757 135.298 66.0417 135.18 66.2109 135.018C66.3802 134.855 66.5397 134.63 66.6895 134.344C66.8457 134.051 66.9759 133.683 67.0801 133.24L67.9102 134.227C67.7604 134.715 67.5749 135.145 67.3535 135.516C67.1322 135.88 66.8783 136.186 66.5918 136.434C66.3118 136.681 66.0059 136.867 65.6738 136.99C65.3418 137.114 64.9837 137.176 64.5996 137.176C64.1243 137.176 63.7012 137.075 63.3301 136.873C62.959 136.665 62.6497 136.368 62.4023 135.984C62.1549 135.6 61.9759 135.141 61.8652 134.607C61.7611 134.067 61.7415 133.465 61.8066 132.801C61.8783 132.137 62.0085 131.521 62.1973 130.955C62.3861 130.389 62.6204 129.884 62.9004 129.441C63.1803 128.992 63.4993 128.611 63.8574 128.299C64.222 127.98 64.6159 127.739 65.0391 127.576C65.4622 127.413 65.9049 127.332 66.3672 127.332C67.1159 127.332 67.7051 127.439 68.1348 127.654C68.5645 127.869 68.9714 128.117 69.3555 128.396L68.3594 129.734C68.1706 129.565 67.9232 129.402 67.6172 129.246C67.3177 129.083 66.9596 129.002 66.543 129.002C66.1589 129.002 65.8203 129.083 65.5273 129.246C65.2409 129.409 64.9902 129.653 64.7754 129.979C64.5671 130.298 64.3945 130.695 64.2578 131.17C64.1211 131.639 64.0202 132.182 63.9551 132.801ZM82.002 134.695V122H84.834V137H82.2852L82.002 134.695ZM75.3223 131.844V131.639C75.3223 130.831 75.4134 130.099 75.5957 129.441C75.778 128.777 76.0449 128.208 76.3965 127.732C76.748 127.257 77.181 126.889 77.6953 126.629C78.2096 126.368 78.7956 126.238 79.4531 126.238C80.0716 126.238 80.612 126.368 81.0742 126.629C81.543 126.889 81.9401 127.26 82.2656 127.742C82.5977 128.217 82.8646 128.781 83.0664 129.432C83.2682 130.076 83.4147 130.783 83.5059 131.551V132C83.4147 132.736 83.2682 133.419 83.0664 134.051C82.8646 134.682 82.5977 135.236 82.2656 135.711C81.9401 136.18 81.543 136.544 81.0742 136.805C80.6055 137.065 80.0586 137.195 79.4336 137.195C78.776 137.195 78.1901 137.062 77.6758 136.795C77.168 136.528 76.7383 136.154 76.3867 135.672C76.0417 135.19 75.778 134.624 75.5957 133.973C75.4134 133.322 75.3223 132.612 75.3223 131.844ZM78.1348 131.639V131.844C78.1348 132.28 78.1673 132.687 78.2324 133.064C78.304 133.442 78.418 133.777 78.5742 134.07C78.737 134.357 78.9453 134.581 79.1992 134.744C79.4596 134.9 79.7754 134.979 80.1465 134.979C80.6283 134.979 81.0254 134.871 81.3379 134.656C81.6504 134.435 81.888 134.132 82.0508 133.748C82.2201 133.364 82.3177 132.921 82.3438 132.42V131.141C82.3242 130.73 82.2656 130.363 82.168 130.037C82.0768 129.705 81.9401 129.422 81.7578 129.188C81.582 128.953 81.3607 128.771 81.0938 128.641C80.8333 128.51 80.5241 128.445 80.166 128.445C79.8014 128.445 79.4889 128.53 79.2285 128.699C78.9681 128.862 78.7565 129.087 78.5938 129.373C78.4375 129.66 78.3203 129.998 78.2422 130.389C78.1706 130.773 78.1348 131.189 78.1348 131.639ZM92.7344 134.617V129.91C92.7344 129.572 92.679 129.282 92.5684 129.041C92.4577 128.794 92.2852 128.602 92.0508 128.465C91.8229 128.328 91.5267 128.26 91.1621 128.26C90.8496 128.26 90.5794 128.315 90.3516 128.426C90.1237 128.53 89.9479 128.683 89.8242 128.885C89.7005 129.08 89.6387 129.311 89.6387 129.578H86.8262C86.8262 129.129 86.9303 128.702 87.1387 128.299C87.347 127.895 87.6497 127.54 88.0469 127.234C88.444 126.922 88.916 126.678 89.4629 126.502C90.0163 126.326 90.6348 126.238 91.3184 126.238C92.1387 126.238 92.8678 126.375 93.5059 126.648C94.1439 126.922 94.6452 127.332 95.0098 127.879C95.3809 128.426 95.5664 129.109 95.5664 129.93V134.451C95.5664 135.031 95.6022 135.506 95.6738 135.877C95.7454 136.242 95.8496 136.561 95.9863 136.834V137H93.1445C93.0078 136.714 92.9036 136.355 92.832 135.926C92.7669 135.49 92.7344 135.053 92.7344 134.617ZM93.1055 130.564L93.125 132.156H91.5527C91.1816 132.156 90.8594 132.199 90.5859 132.283C90.3125 132.368 90.0879 132.488 89.9121 132.645C89.7363 132.794 89.6061 132.97 89.5215 133.172C89.4434 133.374 89.4043 133.595 89.4043 133.836C89.4043 134.077 89.4596 134.295 89.5703 134.49C89.681 134.679 89.8405 134.829 90.0488 134.939C90.2572 135.044 90.5013 135.096 90.7812 135.096C91.2044 135.096 91.5723 135.011 91.8848 134.842C92.1973 134.673 92.4382 134.464 92.6074 134.217C92.7832 133.969 92.8743 133.735 92.8809 133.514L93.623 134.705C93.5189 134.972 93.3757 135.249 93.1934 135.535C93.0176 135.822 92.793 136.092 92.5195 136.346C92.2461 136.593 91.9173 136.798 91.5332 136.961C91.1491 137.117 90.6934 137.195 90.166 137.195C89.4954 137.195 88.8867 137.062 88.3398 136.795C87.7995 136.521 87.3698 136.147 87.0508 135.672C86.7383 135.19 86.582 134.643 86.582 134.031C86.582 133.478 86.6862 132.986 86.8945 132.557C87.1029 132.127 87.4089 131.766 87.8125 131.473C88.2227 131.173 88.7337 130.949 89.3457 130.799C89.9577 130.643 90.6673 130.564 91.4746 130.564H93.1055ZM100.488 128.689V137H97.6758V126.434H100.312L100.488 128.689ZM100.078 131.346H99.3164C99.3164 130.564 99.4173 129.861 99.6191 129.236C99.821 128.605 100.104 128.068 100.469 127.625C100.833 127.176 101.266 126.834 101.768 126.6C102.275 126.359 102.842 126.238 103.467 126.238C103.962 126.238 104.414 126.31 104.824 126.453C105.234 126.596 105.586 126.824 105.879 127.137C106.178 127.449 106.406 127.863 106.562 128.377C106.725 128.891 106.807 129.52 106.807 130.262V137H103.975V130.252C103.975 129.783 103.91 129.419 103.779 129.158C103.649 128.898 103.457 128.715 103.203 128.611C102.956 128.501 102.65 128.445 102.285 128.445C101.908 128.445 101.579 128.52 101.299 128.67C101.025 128.82 100.798 129.028 100.615 129.295C100.439 129.555 100.306 129.861 100.215 130.213C100.124 130.564 100.078 130.942 100.078 131.346ZM111.914 126.434V137H109.092V126.434H111.914ZM108.916 123.68C108.916 123.27 109.059 122.931 109.346 122.664C109.632 122.397 110.016 122.264 110.498 122.264C110.973 122.264 111.354 122.397 111.641 122.664C111.934 122.931 112.08 123.27 112.08 123.68C112.08 124.09 111.934 124.428 111.641 124.695C111.354 124.962 110.973 125.096 110.498 125.096C110.016 125.096 109.632 124.962 109.346 124.695C109.059 124.428 108.916 124.09 108.916 123.68ZM117.373 135.809L120.176 126.434H123.193L118.945 138.592C118.854 138.859 118.73 139.145 118.574 139.451C118.424 139.757 118.219 140.047 117.959 140.32C117.705 140.6 117.383 140.828 116.992 141.004C116.608 141.18 116.136 141.268 115.576 141.268C115.309 141.268 115.091 141.251 114.922 141.219C114.753 141.186 114.551 141.141 114.316 141.082V139.021C114.388 139.021 114.463 139.021 114.541 139.021C114.619 139.028 114.694 139.031 114.766 139.031C115.137 139.031 115.439 138.989 115.674 138.904C115.908 138.82 116.097 138.689 116.24 138.514C116.383 138.344 116.497 138.123 116.582 137.85L117.373 135.809ZM116.201 126.434L118.496 134.09L118.896 137.068L116.982 137.273L113.184 126.434H116.201ZM129.863 134.617V129.91C129.863 129.572 129.808 129.282 129.697 129.041C129.587 128.794 129.414 128.602 129.18 128.465C128.952 128.328 128.656 128.26 128.291 128.26C127.979 128.26 127.708 128.315 127.48 128.426C127.253 128.53 127.077 128.683 126.953 128.885C126.829 129.08 126.768 129.311 126.768 129.578H123.955C123.955 129.129 124.059 128.702 124.268 128.299C124.476 127.895 124.779 127.54 125.176 127.234C125.573 126.922 126.045 126.678 126.592 126.502C127.145 126.326 127.764 126.238 128.447 126.238C129.268 126.238 129.997 126.375 130.635 126.648C131.273 126.922 131.774 127.332 132.139 127.879C132.51 128.426 132.695 129.109 132.695 129.93V134.451C132.695 135.031 132.731 135.506 132.803 135.877C132.874 136.242 132.979 136.561 133.115 136.834V137H130.273C130.137 136.714 130.033 136.355 129.961 135.926C129.896 135.49 129.863 135.053 129.863 134.617ZM130.234 130.564L130.254 132.156H128.682C128.311 132.156 127.988 132.199 127.715 132.283C127.441 132.368 127.217 132.488 127.041 132.645C126.865 132.794 126.735 132.97 126.65 133.172C126.572 133.374 126.533 133.595 126.533 133.836C126.533 134.077 126.589 134.295 126.699 134.49C126.81 134.679 126.969 134.829 127.178 134.939C127.386 135.044 127.63 135.096 127.91 135.096C128.333 135.096 128.701 135.011 129.014 134.842C129.326 134.673 129.567 134.464 129.736 134.217C129.912 133.969 130.003 133.735 130.01 133.514L130.752 134.705C130.648 134.972 130.505 135.249 130.322 135.535C130.146 135.822 129.922 136.092 129.648 136.346C129.375 136.593 129.046 136.798 128.662 136.961C128.278 137.117 127.822 137.195 127.295 137.195C126.624 137.195 126.016 137.062 125.469 136.795C124.928 136.521 124.499 136.147 124.18 135.672C123.867 135.19 123.711 134.643 123.711 134.031C123.711 133.478 123.815 132.986 124.023 132.557C124.232 132.127 124.538 131.766 124.941 131.473C125.352 131.173 125.863 130.949 126.475 130.799C127.087 130.643 127.796 130.564 128.604 130.564H130.234ZM137.676 128.738V137H134.863V126.434H137.51L137.676 128.738ZM140.859 126.365L140.811 128.973C140.674 128.953 140.508 128.937 140.312 128.924C140.124 128.904 139.951 128.895 139.795 128.895C139.398 128.895 139.053 128.947 138.76 129.051C138.473 129.148 138.232 129.295 138.037 129.49C137.848 129.686 137.705 129.923 137.607 130.203C137.516 130.483 137.464 130.802 137.451 131.16L136.885 130.984C136.885 130.301 136.953 129.673 137.09 129.1C137.227 128.52 137.425 128.016 137.686 127.586C137.952 127.156 138.278 126.824 138.662 126.59C139.046 126.355 139.486 126.238 139.98 126.238C140.137 126.238 140.296 126.251 140.459 126.277C140.622 126.297 140.755 126.326 140.859 126.365ZM140.781 135.643C140.781 135.226 140.924 134.878 141.211 134.598C141.504 134.318 141.891 134.178 142.373 134.178C142.855 134.178 143.239 134.318 143.525 134.598C143.818 134.878 143.965 135.226 143.965 135.643C143.965 136.059 143.818 136.408 143.525 136.688C143.239 136.967 142.855 137.107 142.373 137.107C141.891 137.107 141.504 136.967 141.211 136.688C140.924 136.408 140.781 136.059 140.781 135.643ZM145.996 131.824V131.619C145.996 130.844 146.107 130.132 146.328 129.48C146.549 128.823 146.872 128.253 147.295 127.771C147.718 127.29 148.239 126.915 148.857 126.648C149.476 126.375 150.186 126.238 150.986 126.238C151.787 126.238 152.5 126.375 153.125 126.648C153.75 126.915 154.274 127.29 154.697 127.771C155.127 128.253 155.452 128.823 155.674 129.48C155.895 130.132 156.006 130.844 156.006 131.619V131.824C156.006 132.592 155.895 133.305 155.674 133.963C155.452 134.614 155.127 135.184 154.697 135.672C154.274 136.154 153.753 136.528 153.135 136.795C152.516 137.062 151.807 137.195 151.006 137.195C150.205 137.195 149.492 137.062 148.867 136.795C148.249 136.528 147.725 136.154 147.295 135.672C146.872 135.184 146.549 134.614 146.328 133.963C146.107 133.305 145.996 132.592 145.996 131.824ZM148.809 131.619V131.824C148.809 132.267 148.848 132.68 148.926 133.064C149.004 133.449 149.128 133.787 149.297 134.08C149.473 134.367 149.701 134.591 149.98 134.754C150.26 134.917 150.602 134.998 151.006 134.998C151.396 134.998 151.732 134.917 152.012 134.754C152.292 134.591 152.516 134.367 152.686 134.08C152.855 133.787 152.979 133.449 153.057 133.064C153.141 132.68 153.184 132.267 153.184 131.824V131.619C153.184 131.189 153.141 130.786 153.057 130.408C152.979 130.024 152.852 129.686 152.676 129.393C152.507 129.093 152.282 128.859 152.002 128.689C151.722 128.52 151.383 128.436 150.986 128.436C150.589 128.436 150.251 128.52 149.971 128.689C149.697 128.859 149.473 129.093 149.297 129.393C149.128 129.686 149.004 130.024 148.926 130.408C148.848 130.786 148.809 131.189 148.809 131.619ZM160.488 128.689V137H157.676V126.434H160.312L160.488 128.689ZM160.078 131.346H159.316C159.316 130.564 159.417 129.861 159.619 129.236C159.821 128.605 160.104 128.068 160.469 127.625C160.833 127.176 161.266 126.834 161.768 126.6C162.275 126.359 162.842 126.238 163.467 126.238C163.962 126.238 164.414 126.31 164.824 126.453C165.234 126.596 165.586 126.824 165.879 127.137C166.178 127.449 166.406 127.863 166.562 128.377C166.725 128.891 166.807 129.52 166.807 130.262V137H163.975V130.252C163.975 129.783 163.91 129.419 163.779 129.158C163.649 128.898 163.457 128.715 163.203 128.611C162.956 128.501 162.65 128.445 162.285 128.445C161.908 128.445 161.579 128.52 161.299 128.67C161.025 128.82 160.798 129.028 160.615 129.295C160.439 129.555 160.306 129.861 160.215 130.213C160.124 130.564 160.078 130.942 160.078 131.346ZM173.809 137.195C172.988 137.195 172.253 137.065 171.602 136.805C170.951 136.538 170.397 136.17 169.941 135.701C169.492 135.232 169.147 134.689 168.906 134.07C168.665 133.445 168.545 132.781 168.545 132.078V131.688C168.545 130.887 168.659 130.154 168.887 129.49C169.115 128.826 169.44 128.25 169.863 127.762C170.293 127.273 170.814 126.899 171.426 126.639C172.038 126.372 172.728 126.238 173.496 126.238C174.245 126.238 174.909 126.362 175.488 126.609C176.068 126.857 176.553 127.208 176.943 127.664C177.34 128.12 177.64 128.667 177.842 129.305C178.044 129.936 178.145 130.639 178.145 131.414V132.586H169.746V130.711H175.381V130.496C175.381 130.105 175.309 129.757 175.166 129.451C175.029 129.139 174.821 128.891 174.541 128.709C174.261 128.527 173.903 128.436 173.467 128.436C173.096 128.436 172.777 128.517 172.51 128.68C172.243 128.842 172.025 129.07 171.855 129.363C171.693 129.656 171.569 130.001 171.484 130.398C171.406 130.789 171.367 131.219 171.367 131.688V132.078C171.367 132.501 171.426 132.892 171.543 133.25C171.667 133.608 171.839 133.917 172.061 134.178C172.288 134.438 172.562 134.64 172.881 134.783C173.206 134.926 173.574 134.998 173.984 134.998C174.492 134.998 174.964 134.9 175.4 134.705C175.843 134.503 176.224 134.201 176.543 133.797L177.91 135.281C177.689 135.6 177.386 135.906 177.002 136.199C176.624 136.492 176.169 136.733 175.635 136.922C175.101 137.104 174.492 137.195 173.809 137.195Z" fill="white"/>
<path d="M118.833 55.1666H82.1666C79.6458 55.1666 77.6062 57.2291 77.6062 59.75L77.5833 87.25C77.5833 89.7708 79.6458 91.8333 82.1666 91.8333H118.833C121.354 91.8333 123.417 89.7708 123.417 87.25V59.75C123.417 57.2291 121.354 55.1666 118.833 55.1666ZM118.833 64.3333L100.5 75.7916L82.1666 64.3333V59.75L100.5 71.2083L118.833 59.75V64.3333Z" fill="white"/>
<path d="M93.0679 185.44L92.2729 190H91.0537L92.0635 184.188H93.2075L93.0679 185.44ZM92.6328 186.885L92.2407 186.89C92.2729 186.575 92.3356 186.251 92.4287 185.918C92.5254 185.585 92.6579 185.277 92.8262 184.994C92.998 184.711 93.2183 184.486 93.4868 184.317C93.7554 184.146 94.0812 184.067 94.4644 184.081C94.7437 184.088 94.9674 184.156 95.1357 184.285C95.3076 184.41 95.4365 184.573 95.5225 184.774C95.612 184.974 95.6657 185.193 95.6836 185.429C95.7051 185.666 95.7033 185.898 95.6782 186.127L95.0391 190H93.8145L94.4429 186.24C94.4608 186.079 94.4626 185.914 94.4482 185.746C94.4375 185.578 94.3892 185.436 94.3032 185.322C94.2209 185.204 94.0758 185.141 93.8682 185.134C93.6462 185.127 93.46 185.18 93.3096 185.295C93.1592 185.406 93.0374 185.555 92.9443 185.741C92.8548 185.923 92.785 186.117 92.7349 186.321C92.6883 186.525 92.6543 186.713 92.6328 186.885ZM95.5601 186.552L94.9961 186.686C95.0247 186.389 95.0856 186.086 95.1787 185.778C95.2754 185.467 95.4079 185.182 95.5762 184.924C95.748 184.663 95.9629 184.455 96.2207 184.301C96.4785 184.144 96.7847 184.069 97.1392 184.076C97.4399 184.083 97.6816 184.153 97.8643 184.285C98.0469 184.414 98.1829 184.586 98.2725 184.801C98.362 185.012 98.4157 185.243 98.4336 185.494C98.4551 185.744 98.4515 185.995 98.4229 186.246L97.7944 190H96.5698L97.1929 186.235C97.2108 186.074 97.2144 185.909 97.2036 185.741C97.1929 185.572 97.1445 185.431 97.0586 185.316C96.9762 185.202 96.8294 185.143 96.6182 185.139C96.4391 185.136 96.2869 185.18 96.1616 185.273C96.0399 185.363 95.936 185.481 95.8501 185.628C95.7677 185.771 95.7033 185.925 95.6567 186.09C95.6138 186.255 95.5815 186.409 95.5601 186.552ZM101.85 188.818L102.312 185.907C102.326 185.768 102.322 185.637 102.301 185.515C102.283 185.39 102.233 185.288 102.15 185.209C102.072 185.13 101.95 185.089 101.785 185.085C101.624 185.082 101.486 185.116 101.372 185.188C101.257 185.256 101.164 185.35 101.092 185.472C101.024 185.59 100.978 185.721 100.953 185.864L99.7334 185.875C99.7549 185.596 99.8283 185.345 99.9536 185.123C100.083 184.897 100.247 184.706 100.448 184.548C100.648 184.391 100.872 184.273 101.119 184.194C101.37 184.111 101.629 184.072 101.898 184.076C102.274 184.079 102.591 184.16 102.849 184.317C103.106 184.471 103.294 184.686 103.413 184.962C103.531 185.238 103.57 185.563 103.531 185.939L103.09 188.657C103.058 188.865 103.037 189.074 103.026 189.286C103.019 189.493 103.037 189.701 103.08 189.909L103.074 190L101.871 190.005C101.821 189.812 101.798 189.615 101.801 189.415C101.805 189.214 101.821 189.015 101.85 188.818ZM102.419 186.46L102.285 187.271L101.758 187.266C101.594 187.266 101.436 187.289 101.286 187.336C101.139 187.382 101.003 187.451 100.877 187.54C100.756 187.63 100.655 187.739 100.577 187.868C100.501 187.997 100.453 188.149 100.432 188.324C100.414 188.453 100.416 188.575 100.437 188.689C100.462 188.804 100.512 188.897 100.587 188.969C100.666 189.04 100.783 189.078 100.937 189.082C101.098 189.082 101.253 189.048 101.404 188.979C101.554 188.908 101.681 188.811 101.785 188.689C101.893 188.568 101.961 188.426 101.989 188.265L102.199 188.797C102.145 188.972 102.07 189.141 101.973 189.302C101.88 189.459 101.765 189.601 101.629 189.726C101.497 189.848 101.347 189.944 101.178 190.016C101.01 190.088 100.827 190.122 100.63 190.118C100.308 190.115 100.036 190.038 99.814 189.887C99.592 189.733 99.4255 189.531 99.3145 189.28C99.207 189.026 99.1623 188.745 99.1802 188.437C99.1981 188.097 99.2786 187.801 99.4219 187.551C99.5651 187.3 99.7513 187.094 99.9805 186.933C100.21 186.768 100.469 186.648 100.759 186.573C101.049 186.494 101.354 186.455 101.672 186.455L102.419 186.46ZM106.388 184.188L105.378 190H104.159L105.169 184.188H106.388ZM105.373 182.69C105.377 182.489 105.439 182.319 105.561 182.18C105.686 182.036 105.851 181.963 106.055 181.959C106.252 181.956 106.413 182.02 106.539 182.153C106.664 182.285 106.725 182.45 106.721 182.647C106.718 182.844 106.653 183.012 106.528 183.152C106.406 183.288 106.243 183.358 106.039 183.361C105.842 183.368 105.681 183.308 105.556 183.179C105.434 183.046 105.373 182.883 105.373 182.69ZM109.391 181.75L107.957 190H106.737L108.171 181.75H109.391Z" fill="white"/>
</svg>
