<svg width="200" height="200" viewBox="0 0 200 200" fill="none" xmlns="http://www.w3.org/2000/svg">
<rect width="200" height="200" rx="10" fill="#48A853"/>
<path d="M41.293 129.08V131.531H31.5469V129.08H41.293ZM37.7578 125.223V135.574H35.0918V125.223H37.7578ZM52.5332 122.781V124.295L47.0352 137H44.0664L49.5645 124.979H42.4844V122.781H52.5332ZM56.3516 134.861H56.5371C57.3184 134.861 57.9889 134.767 58.5488 134.578C59.1152 134.383 59.5807 134.103 59.9453 133.738C60.3099 133.374 60.5801 132.928 60.7559 132.4C60.9316 131.867 61.0195 131.261 61.0195 130.584V127.889C61.0195 127.374 60.9674 126.922 60.8633 126.531C60.7656 126.141 60.6224 125.818 60.4336 125.564C60.2513 125.304 60.0365 125.109 59.7891 124.979C59.5482 124.848 59.2812 124.783 58.9883 124.783C58.6758 124.783 58.3991 124.861 58.1582 125.018C57.9173 125.167 57.7122 125.372 57.543 125.633C57.3802 125.893 57.2533 126.193 57.1621 126.531C57.0775 126.863 57.0352 127.212 57.0352 127.576C57.0352 127.941 57.0775 128.289 57.1621 128.621C57.2467 128.947 57.3737 129.236 57.543 129.49C57.7122 129.738 57.9238 129.936 58.1777 130.086C58.4316 130.229 58.7311 130.301 59.0762 130.301C59.4082 130.301 59.7044 130.239 59.9648 130.115C60.2318 129.985 60.4564 129.816 60.6387 129.607C60.8275 129.399 60.9707 129.168 61.0684 128.914C61.1725 128.66 61.2246 128.403 61.2246 128.143L62.1523 128.65C62.1523 129.106 62.0547 129.555 61.8594 129.998C61.6641 130.441 61.3906 130.844 61.0391 131.209C60.694 131.567 60.2936 131.854 59.8379 132.068C59.3822 132.283 58.8939 132.391 58.373 132.391C57.709 132.391 57.1198 132.27 56.6055 132.029C56.0911 131.782 55.6549 131.443 55.2969 131.014C54.9453 130.577 54.6784 130.07 54.4961 129.49C54.3138 128.911 54.2227 128.283 54.2227 127.605C54.2227 126.915 54.3333 126.268 54.5547 125.662C54.7826 125.057 55.1048 124.523 55.5215 124.061C55.9447 123.598 56.4492 123.237 57.0352 122.977C57.6276 122.71 58.2852 122.576 59.0078 122.576C59.7305 122.576 60.388 122.716 60.9805 122.996C61.5729 123.276 62.0807 123.673 62.5039 124.188C62.9271 124.695 63.2526 125.304 63.4805 126.014C63.7148 126.723 63.832 127.511 63.832 128.377V129.354C63.832 130.278 63.7311 131.137 63.5293 131.932C63.334 132.726 63.0378 133.445 62.6406 134.09C62.25 134.728 61.7617 135.275 61.1758 135.73C60.5964 136.186 59.9225 136.535 59.1543 136.775C58.3861 137.016 57.5267 137.137 56.5762 137.137H56.3516V134.861ZM73.0996 122.635H73.5098V124.881H73.3438C72.6016 124.881 71.9408 124.992 71.3613 125.213C70.7819 125.434 70.2904 125.75 69.8867 126.16C69.4896 126.564 69.1836 127.052 68.9688 127.625C68.7604 128.198 68.6562 128.839 68.6562 129.549V131.912C68.6562 132.42 68.7051 132.869 68.8027 133.26C68.9069 133.644 69.0534 133.966 69.2422 134.227C69.4375 134.48 69.6654 134.673 69.9258 134.803C70.1862 134.926 70.4792 134.988 70.8047 134.988C71.1107 134.988 71.3874 134.923 71.6348 134.793C71.8887 134.663 72.1035 134.48 72.2793 134.246C72.4616 134.005 72.5983 133.725 72.6895 133.406C72.7871 133.081 72.8359 132.726 72.8359 132.342C72.8359 131.958 72.7871 131.603 72.6895 131.277C72.5983 130.952 72.4616 130.672 72.2793 130.438C72.097 130.197 71.8757 130.011 71.6152 129.881C71.3548 129.751 71.0618 129.686 70.7363 129.686C70.2936 129.686 69.903 129.79 69.5645 129.998C69.2324 130.2 68.972 130.46 68.7832 130.779C68.5944 131.098 68.4935 131.434 68.4805 131.785L67.6309 131.238C67.6504 130.737 67.7546 130.262 67.9434 129.812C68.1387 129.363 68.4056 128.966 68.7441 128.621C69.0892 128.27 69.5026 127.996 69.9844 127.801C70.4661 127.599 71.0098 127.498 71.6152 127.498C72.2793 127.498 72.862 127.625 73.3633 127.879C73.8711 128.133 74.2943 128.481 74.6328 128.924C74.9714 129.367 75.2253 129.878 75.3945 130.457C75.5638 131.036 75.6484 131.655 75.6484 132.312C75.6484 133.003 75.5345 133.644 75.3066 134.236C75.0853 134.829 74.763 135.346 74.3398 135.789C73.9232 136.232 73.4219 136.577 72.8359 136.824C72.25 137.072 71.5924 137.195 70.8633 137.195C70.1081 137.195 69.4212 137.059 68.8027 136.785C68.1908 136.505 67.6634 136.115 67.2207 135.613C66.778 135.112 66.4362 134.516 66.1953 133.826C65.9609 133.136 65.8438 132.381 65.8438 131.561V130.467C65.8438 129.321 66.0098 128.273 66.3418 127.322C66.6803 126.365 67.1654 125.538 67.7969 124.842C68.4284 124.139 69.1901 123.595 70.082 123.211C70.974 122.827 71.9798 122.635 73.0996 122.635ZM80.209 128.67H81.7129C82.1947 128.67 82.5918 128.589 82.9043 128.426C83.2168 128.257 83.4479 128.022 83.5977 127.723C83.7539 127.417 83.832 127.062 83.832 126.658C83.832 126.294 83.7604 125.971 83.6172 125.691C83.4805 125.405 83.2689 125.184 82.9824 125.027C82.696 124.865 82.3346 124.783 81.8984 124.783C81.5534 124.783 81.2344 124.852 80.9414 124.988C80.6484 125.125 80.4141 125.317 80.2383 125.564C80.0625 125.812 79.9746 126.111 79.9746 126.463H77.1523C77.1523 125.682 77.3607 125.001 77.7773 124.422C78.2005 123.842 78.7669 123.39 79.4766 123.064C80.1862 122.739 80.9674 122.576 81.8203 122.576C82.7839 122.576 83.627 122.732 84.3496 123.045C85.0723 123.351 85.6354 123.803 86.0391 124.402C86.4427 125.001 86.6445 125.743 86.6445 126.629C86.6445 127.078 86.5404 127.514 86.332 127.938C86.1237 128.354 85.8242 128.732 85.4336 129.07C85.0495 129.402 84.5807 129.669 84.0273 129.871C83.474 130.066 82.8522 130.164 82.1621 130.164H80.209V128.67ZM80.209 130.809V129.354H82.1621C82.9368 129.354 83.6172 129.441 84.2031 129.617C84.7891 129.793 85.2806 130.047 85.6777 130.379C86.0749 130.704 86.3743 131.092 86.5762 131.541C86.778 131.984 86.8789 132.475 86.8789 133.016C86.8789 133.68 86.752 134.272 86.498 134.793C86.2441 135.307 85.8861 135.743 85.4238 136.102C84.9681 136.46 84.4342 136.733 83.8223 136.922C83.2103 137.104 82.543 137.195 81.8203 137.195C81.2214 137.195 80.6322 137.114 80.0527 136.951C79.4798 136.782 78.959 136.531 78.4902 136.199C78.028 135.861 77.6569 135.438 77.377 134.93C77.1035 134.415 76.9668 133.807 76.9668 133.104H79.7891C79.7891 133.468 79.8802 133.794 80.0625 134.08C80.2448 134.367 80.4954 134.591 80.8145 134.754C81.14 134.917 81.5013 134.998 81.8984 134.998C82.3477 134.998 82.7318 134.917 83.0508 134.754C83.3763 134.585 83.6237 134.35 83.793 134.051C83.9688 133.745 84.0566 133.39 84.0566 132.986C84.0566 132.465 83.9622 132.049 83.7734 131.736C83.5846 131.417 83.3145 131.183 82.9629 131.033C82.6113 130.883 82.1947 130.809 81.7129 130.809H80.209ZM98.3926 133.104C98.3926 133.995 98.1842 134.747 97.7676 135.359C97.3509 135.965 96.778 136.424 96.0488 136.736C95.3262 137.042 94.5059 137.195 93.5879 137.195C92.6699 137.195 91.8464 137.042 91.1172 136.736C90.388 136.424 89.8118 135.965 89.3887 135.359C88.9655 134.747 88.7539 133.995 88.7539 133.104C88.7539 132.505 88.8743 131.964 89.1152 131.482C89.3561 130.994 89.6914 130.577 90.1211 130.232C90.5573 129.881 91.0684 129.614 91.6543 129.432C92.2402 129.243 92.8783 129.148 93.5684 129.148C94.4928 129.148 95.3197 129.311 96.0488 129.637C96.778 129.962 97.3509 130.421 97.7676 131.014C98.1842 131.606 98.3926 132.303 98.3926 133.104ZM95.5605 132.918C95.5605 132.482 95.4759 132.107 95.3066 131.795C95.1439 131.476 94.9128 131.232 94.6133 131.062C94.3138 130.893 93.9655 130.809 93.5684 130.809C93.1712 130.809 92.8229 130.893 92.5234 131.062C92.224 131.232 91.9896 131.476 91.8203 131.795C91.6576 132.107 91.5762 132.482 91.5762 132.918C91.5762 133.348 91.6576 133.719 91.8203 134.031C91.9896 134.344 92.224 134.585 92.5234 134.754C92.8294 134.917 93.1842 134.998 93.5879 134.998C93.9915 134.998 94.3398 134.917 94.6328 134.754C94.9323 134.585 95.1602 134.344 95.3164 134.031C95.4792 133.719 95.5605 133.348 95.5605 132.918ZM98.0898 126.551C98.0898 127.273 97.8978 127.915 97.5137 128.475C97.1296 129.028 96.5957 129.461 95.9121 129.773C95.235 130.086 94.4603 130.242 93.5879 130.242C92.709 130.242 91.9277 130.086 91.2441 129.773C90.5605 129.461 90.0267 129.028 89.6426 128.475C89.2585 127.915 89.0664 127.273 89.0664 126.551C89.0664 125.691 89.2585 124.969 89.6426 124.383C90.0332 123.79 90.5671 123.341 91.2441 123.035C91.9277 122.729 92.7025 122.576 93.5684 122.576C94.4473 122.576 95.2253 122.729 95.9023 123.035C96.5859 123.341 97.1198 123.79 97.5039 124.383C97.8945 124.969 98.0898 125.691 98.0898 126.551ZM95.2773 126.678C95.2773 126.294 95.209 125.962 95.0723 125.682C94.9355 125.395 94.7402 125.174 94.4863 125.018C94.2389 124.861 93.9329 124.783 93.5684 124.783C93.2168 124.783 92.9141 124.858 92.6602 125.008C92.4128 125.158 92.2207 125.376 92.084 125.662C91.9538 125.942 91.8887 126.281 91.8887 126.678C91.8887 127.062 91.9538 127.4 92.084 127.693C92.2207 127.98 92.416 128.204 92.6699 128.367C92.9238 128.53 93.2298 128.611 93.5879 128.611C93.946 128.611 94.2487 128.53 94.4961 128.367C94.75 128.204 94.9421 127.98 95.0723 127.693C95.209 127.4 95.2773 127.062 95.2773 126.678ZM102.289 134.861H102.475C103.256 134.861 103.926 134.767 104.486 134.578C105.053 134.383 105.518 134.103 105.883 133.738C106.247 133.374 106.518 132.928 106.693 132.4C106.869 131.867 106.957 131.261 106.957 130.584V127.889C106.957 127.374 106.905 126.922 106.801 126.531C106.703 126.141 106.56 125.818 106.371 125.564C106.189 125.304 105.974 125.109 105.727 124.979C105.486 124.848 105.219 124.783 104.926 124.783C104.613 124.783 104.337 124.861 104.096 125.018C103.855 125.167 103.65 125.372 103.48 125.633C103.318 125.893 103.191 126.193 103.1 126.531C103.015 126.863 102.973 127.212 102.973 127.576C102.973 127.941 103.015 128.289 103.1 128.621C103.184 128.947 103.311 129.236 103.48 129.49C103.65 129.738 103.861 129.936 104.115 130.086C104.369 130.229 104.669 130.301 105.014 130.301C105.346 130.301 105.642 130.239 105.902 130.115C106.169 129.985 106.394 129.816 106.576 129.607C106.765 129.399 106.908 129.168 107.006 128.914C107.11 128.66 107.162 128.403 107.162 128.143L108.09 128.65C108.09 129.106 107.992 129.555 107.797 129.998C107.602 130.441 107.328 130.844 106.977 131.209C106.632 131.567 106.231 131.854 105.775 132.068C105.32 132.283 104.831 132.391 104.311 132.391C103.646 132.391 103.057 132.27 102.543 132.029C102.029 131.782 101.592 131.443 101.234 131.014C100.883 130.577 100.616 130.07 100.434 129.49C100.251 128.911 100.16 128.283 100.16 127.605C100.16 126.915 100.271 126.268 100.492 125.662C100.72 125.057 101.042 124.523 101.459 124.061C101.882 123.598 102.387 123.237 102.973 122.977C103.565 122.71 104.223 122.576 104.945 122.576C105.668 122.576 106.326 122.716 106.918 122.996C107.51 123.276 108.018 123.673 108.441 124.188C108.865 124.695 109.19 125.304 109.418 126.014C109.652 126.723 109.77 127.511 109.77 128.377V129.354C109.77 130.278 109.669 131.137 109.467 131.932C109.271 132.726 108.975 133.445 108.578 134.09C108.188 134.728 107.699 135.275 107.113 135.73C106.534 136.186 105.86 136.535 105.092 136.775C104.324 137.016 103.464 137.137 102.514 137.137H102.289V134.861ZM113.773 134.861H113.959C114.74 134.861 115.411 134.767 115.971 134.578C116.537 134.383 117.003 134.103 117.367 133.738C117.732 133.374 118.002 132.928 118.178 132.4C118.354 131.867 118.441 131.261 118.441 130.584V127.889C118.441 127.374 118.389 126.922 118.285 126.531C118.188 126.141 118.044 125.818 117.855 125.564C117.673 125.304 117.458 125.109 117.211 124.979C116.97 124.848 116.703 124.783 116.41 124.783C116.098 124.783 115.821 124.861 115.58 125.018C115.339 125.167 115.134 125.372 114.965 125.633C114.802 125.893 114.675 126.193 114.584 126.531C114.499 126.863 114.457 127.212 114.457 127.576C114.457 127.941 114.499 128.289 114.584 128.621C114.669 128.947 114.796 129.236 114.965 129.49C115.134 129.738 115.346 129.936 115.6 130.086C115.854 130.229 116.153 130.301 116.498 130.301C116.83 130.301 117.126 130.239 117.387 130.115C117.654 129.985 117.878 129.816 118.061 129.607C118.249 129.399 118.393 129.168 118.49 128.914C118.594 128.66 118.646 128.403 118.646 128.143L119.574 128.65C119.574 129.106 119.477 129.555 119.281 129.998C119.086 130.441 118.812 130.844 118.461 131.209C118.116 131.567 117.715 131.854 117.26 132.068C116.804 132.283 116.316 132.391 115.795 132.391C115.131 132.391 114.542 132.27 114.027 132.029C113.513 131.782 113.077 131.443 112.719 131.014C112.367 130.577 112.1 130.07 111.918 129.49C111.736 128.911 111.645 128.283 111.645 127.605C111.645 126.915 111.755 126.268 111.977 125.662C112.204 125.057 112.527 124.523 112.943 124.061C113.367 123.598 113.871 123.237 114.457 122.977C115.049 122.71 115.707 122.576 116.43 122.576C117.152 122.576 117.81 122.716 118.402 122.996C118.995 123.276 119.503 123.673 119.926 124.188C120.349 124.695 120.674 125.304 120.902 126.014C121.137 126.723 121.254 127.511 121.254 128.377V129.354C121.254 130.278 121.153 131.137 120.951 131.932C120.756 132.726 120.46 133.445 120.062 134.09C119.672 134.728 119.184 135.275 118.598 135.73C118.018 136.186 117.344 136.535 116.576 136.775C115.808 137.016 114.949 137.137 113.998 137.137H113.773V134.861ZM126.146 128.67H127.65C128.132 128.67 128.529 128.589 128.842 128.426C129.154 128.257 129.385 128.022 129.535 127.723C129.691 127.417 129.77 127.062 129.77 126.658C129.77 126.294 129.698 125.971 129.555 125.691C129.418 125.405 129.206 125.184 128.92 125.027C128.633 124.865 128.272 124.783 127.836 124.783C127.491 124.783 127.172 124.852 126.879 124.988C126.586 125.125 126.352 125.317 126.176 125.564C126 125.812 125.912 126.111 125.912 126.463H123.09C123.09 125.682 123.298 125.001 123.715 124.422C124.138 123.842 124.704 123.39 125.414 123.064C126.124 122.739 126.905 122.576 127.758 122.576C128.721 122.576 129.564 122.732 130.287 123.045C131.01 123.351 131.573 123.803 131.977 124.402C132.38 125.001 132.582 125.743 132.582 126.629C132.582 127.078 132.478 127.514 132.27 127.938C132.061 128.354 131.762 128.732 131.371 129.07C130.987 129.402 130.518 129.669 129.965 129.871C129.411 130.066 128.79 130.164 128.1 130.164H126.146V128.67ZM126.146 130.809V129.354H128.1C128.874 129.354 129.555 129.441 130.141 129.617C130.727 129.793 131.218 130.047 131.615 130.379C132.012 130.704 132.312 131.092 132.514 131.541C132.715 131.984 132.816 132.475 132.816 133.016C132.816 133.68 132.689 134.272 132.436 134.793C132.182 135.307 131.824 135.743 131.361 136.102C130.906 136.46 130.372 136.733 129.76 136.922C129.148 137.104 128.48 137.195 127.758 137.195C127.159 137.195 126.57 137.114 125.99 136.951C125.417 136.782 124.896 136.531 124.428 136.199C123.965 135.861 123.594 135.438 123.314 134.93C123.041 134.415 122.904 133.807 122.904 133.104H125.727C125.727 133.468 125.818 133.794 126 134.08C126.182 134.367 126.433 134.591 126.752 134.754C127.077 134.917 127.439 134.998 127.836 134.998C128.285 134.998 128.669 134.917 128.988 134.754C129.314 134.585 129.561 134.35 129.73 134.051C129.906 133.745 129.994 133.39 129.994 132.986C129.994 132.465 129.9 132.049 129.711 131.736C129.522 131.417 129.252 131.183 128.9 131.033C128.549 130.883 128.132 130.809 127.65 130.809H126.146ZM137.396 130.525L135.15 129.988L135.961 122.781H143.949V125.057H138.275L137.924 128.211C138.113 128.1 138.399 127.983 138.783 127.859C139.167 127.729 139.597 127.664 140.072 127.664C140.762 127.664 141.374 127.771 141.908 127.986C142.442 128.201 142.895 128.514 143.266 128.924C143.643 129.334 143.93 129.835 144.125 130.428C144.32 131.02 144.418 131.691 144.418 132.439C144.418 133.071 144.32 133.673 144.125 134.246C143.93 134.812 143.633 135.32 143.236 135.77C142.839 136.212 142.341 136.561 141.742 136.814C141.143 137.068 140.434 137.195 139.613 137.195C139.001 137.195 138.409 137.104 137.836 136.922C137.27 136.74 136.758 136.469 136.303 136.111C135.854 135.753 135.492 135.32 135.219 134.812C134.952 134.298 134.812 133.712 134.799 133.055H137.592C137.631 133.458 137.735 133.807 137.904 134.1C138.08 134.386 138.311 134.607 138.598 134.764C138.884 134.92 139.219 134.998 139.604 134.998C139.962 134.998 140.268 134.93 140.521 134.793C140.775 134.656 140.98 134.467 141.137 134.227C141.293 133.979 141.407 133.693 141.479 133.367C141.557 133.035 141.596 132.677 141.596 132.293C141.596 131.909 141.55 131.561 141.459 131.248C141.368 130.936 141.228 130.665 141.039 130.438C140.85 130.21 140.609 130.034 140.316 129.91C140.03 129.786 139.695 129.725 139.311 129.725C138.79 129.725 138.386 129.806 138.1 129.969C137.82 130.132 137.585 130.317 137.396 130.525ZM155.805 128.641V131.102C155.805 132.169 155.691 133.09 155.463 133.865C155.235 134.633 154.906 135.265 154.477 135.76C154.053 136.248 153.549 136.609 152.963 136.844C152.377 137.078 151.726 137.195 151.01 137.195C150.437 137.195 149.903 137.124 149.408 136.98C148.913 136.831 148.467 136.6 148.07 136.287C147.68 135.975 147.341 135.581 147.055 135.105C146.775 134.624 146.56 134.051 146.41 133.387C146.26 132.723 146.186 131.961 146.186 131.102V128.641C146.186 127.573 146.299 126.658 146.527 125.896C146.762 125.128 147.09 124.5 147.514 124.012C147.943 123.523 148.451 123.165 149.037 122.938C149.623 122.703 150.274 122.586 150.99 122.586C151.563 122.586 152.094 122.661 152.582 122.811C153.077 122.954 153.523 123.178 153.92 123.484C154.317 123.79 154.656 124.184 154.936 124.666C155.215 125.141 155.43 125.711 155.58 126.375C155.73 127.033 155.805 127.788 155.805 128.641ZM152.982 131.473V128.26C152.982 127.745 152.953 127.296 152.895 126.912C152.842 126.528 152.761 126.202 152.65 125.936C152.54 125.662 152.403 125.441 152.24 125.271C152.077 125.102 151.892 124.979 151.684 124.9C151.475 124.822 151.244 124.783 150.99 124.783C150.671 124.783 150.388 124.845 150.141 124.969C149.9 125.092 149.695 125.291 149.525 125.564C149.356 125.831 149.226 126.189 149.135 126.639C149.05 127.081 149.008 127.622 149.008 128.26V131.473C149.008 131.987 149.034 132.439 149.086 132.83C149.145 133.221 149.229 133.556 149.34 133.836C149.457 134.109 149.594 134.334 149.75 134.51C149.913 134.679 150.098 134.803 150.307 134.881C150.521 134.959 150.756 134.998 151.01 134.998C151.322 134.998 151.599 134.936 151.84 134.812C152.087 134.682 152.296 134.48 152.465 134.207C152.641 133.927 152.771 133.562 152.855 133.113C152.94 132.664 152.982 132.117 152.982 131.473ZM164.574 122.752V137H161.762V125.994L158.383 127.068V124.852L164.271 122.752H164.574Z" fill="white"/>
<path fill-rule="evenodd" clip-rule="evenodd" d="M117.551 56.4307C115.326 54.2049 112.684 52.4412 109.775 51.2411C106.866 50.0409 103.748 49.4279 100.601 49.4375C87.3945 49.4375 76.6437 60.1346 76.6384 73.2851C76.6325 77.4726 77.7363 81.5868 79.8374 85.209L76.4375 97.5625L89.1401 94.2464C92.6563 96.1512 96.5923 97.1482 100.591 97.1468H100.601C113.806 97.1468 124.556 86.4486 124.562 73.2991C124.57 70.163 123.955 67.0566 122.751 64.1607C121.547 61.2647 119.78 58.6371 117.551 56.4307ZM100.601 93.1217H100.592C97.0275 93.1227 93.5274 92.1687 90.4561 90.3588L89.7288 89.9291L82.191 91.8971L84.203 84.5827L83.7293 83.8308C81.736 80.6749 80.6799 77.0178 80.6839 73.2851C80.6839 62.3571 89.6225 53.4658 100.608 53.4658C105.879 53.4564 110.937 55.5407 114.67 59.2603C118.404 62.9799 120.507 68.0301 120.517 73.3002C120.513 84.2293 111.578 93.1217 100.601 93.1217ZM111.525 78.277C110.926 77.9784 107.98 76.5368 107.434 76.3381C106.888 76.1393 106.486 76.0394 106.087 76.6367C105.688 77.234 104.54 78.5703 104.191 78.9731C103.842 79.376 103.493 79.42 102.894 79.1214C102.296 78.8227 100.366 78.1943 98.0787 76.1641C96.2987 74.5839 95.0978 72.6331 94.7486 72.0369C94.3995 71.4407 94.711 71.1174 95.0107 70.8209C95.2804 70.5534 95.6091 70.1248 95.9088 69.7767C96.2085 69.4287 96.3084 69.1795 96.5071 68.782C96.7059 68.3846 96.607 68.0365 96.4577 67.739C96.3084 67.4414 95.1106 64.5077 94.6122 63.3142C94.1256 62.1519 93.6325 62.3099 93.2651 62.2916C92.916 62.2744 92.5132 62.2701 92.1168 62.2701C91.8138 62.278 91.5156 62.3483 91.241 62.4765C90.9663 62.6048 90.7211 62.7883 90.5205 63.0156C89.9716 63.6129 88.4247 65.0566 88.4247 67.9871C88.4247 70.9176 90.5731 73.7535 90.8696 74.151C91.1661 74.5484 95.0913 80.5673 101.097 83.1486C102.213 83.6262 103.352 84.045 104.511 84.4033C105.945 84.8566 107.25 84.7933 108.282 84.6396C109.432 84.4688 111.827 83.198 112.324 81.8059C112.821 80.4137 112.822 79.2213 112.673 78.9731C112.524 78.725 112.124 78.5746 111.525 78.277Z" fill="white"/>
<path d="M81.5361 188.63L83.3892 184.188H84.1948L83.7866 185.633L81.9443 190H81.2354L81.5361 188.63ZM81.8369 184.188L81.896 188.786L81.6919 190H80.9399L80.6768 184.188H81.8369ZM84.3076 188.593L85.8652 184.188H87.0791L84.8071 190H84.0176L84.3076 188.593ZM84.3022 184.188L84.6191 188.711L84.4688 190H83.8027L83.4482 185.504L83.5396 184.188H84.3022ZM89.5229 181.75L88.0942 190H86.8696L88.3037 181.75H89.5229ZM88.438 186.896H88.0835C88.1157 186.598 88.1784 186.285 88.2715 185.956C88.3682 185.626 88.5007 185.316 88.6689 185.026C88.8372 184.736 89.0521 184.504 89.3135 184.328C89.5749 184.149 89.89 184.067 90.2588 184.081C90.556 184.088 90.7941 184.16 90.9731 184.296C91.1558 184.428 91.29 184.602 91.376 184.817C91.4655 185.032 91.5192 185.266 91.5371 185.521C91.555 185.775 91.5496 186.024 91.521 186.267L90.8979 190H89.6787L90.3018 186.251C90.3161 186.09 90.3197 185.925 90.3125 185.757C90.3053 185.585 90.2606 185.44 90.1782 185.322C90.0959 185.204 89.9508 185.143 89.7432 185.139C89.5176 185.128 89.326 185.182 89.1685 185.3C89.0145 185.415 88.8874 185.563 88.7871 185.746C88.6904 185.929 88.6134 186.122 88.5562 186.326C88.4989 186.53 88.4595 186.72 88.438 186.896ZM94.9316 188.818L95.3936 185.907C95.4079 185.768 95.4043 185.637 95.3828 185.515C95.3649 185.39 95.3148 185.288 95.2324 185.209C95.1536 185.13 95.0319 185.089 94.8672 185.085C94.7061 185.082 94.5682 185.116 94.4536 185.188C94.339 185.256 94.2459 185.35 94.1743 185.472C94.1063 185.59 94.0597 185.721 94.0347 185.864L92.8154 185.875C92.8369 185.596 92.9103 185.345 93.0356 185.123C93.1646 184.897 93.3293 184.706 93.5298 184.548C93.7303 184.391 93.9541 184.273 94.2012 184.194C94.4518 184.111 94.7114 184.072 94.98 184.076C95.356 184.079 95.6729 184.16 95.9307 184.317C96.1885 184.471 96.3765 184.686 96.4946 184.962C96.6128 185.238 96.6522 185.563 96.6128 185.939L96.1724 188.657C96.1401 188.865 96.1187 189.074 96.1079 189.286C96.1007 189.493 96.1187 189.701 96.1616 189.909L96.1562 190L94.9531 190.005C94.903 189.812 94.8797 189.615 94.8833 189.415C94.8869 189.214 94.903 189.015 94.9316 188.818ZM95.501 186.46L95.3667 187.271L94.8403 187.266C94.6756 187.266 94.5181 187.289 94.3677 187.336C94.2209 187.382 94.0848 187.451 93.9595 187.54C93.8377 187.63 93.7375 187.739 93.6587 187.868C93.5835 187.997 93.5352 188.149 93.5137 188.324C93.4958 188.453 93.4976 188.575 93.519 188.689C93.5441 188.804 93.5942 188.897 93.6694 188.969C93.7482 189.04 93.8646 189.078 94.0186 189.082C94.1797 189.082 94.3354 189.048 94.4858 188.979C94.6362 188.908 94.7633 188.811 94.8672 188.689C94.9746 188.568 95.0426 188.426 95.0713 188.265L95.2808 188.797C95.2271 188.972 95.1519 189.141 95.0552 189.302C94.9621 189.459 94.8475 189.601 94.7114 189.726C94.5789 189.848 94.4285 189.944 94.2603 190.016C94.092 190.088 93.9093 190.122 93.7124 190.118C93.3901 190.115 93.118 190.038 92.896 189.887C92.674 189.733 92.5075 189.531 92.3965 189.28C92.2891 189.026 92.2443 188.745 92.2622 188.437C92.2801 188.097 92.3607 187.801 92.5039 187.551C92.6471 187.3 92.8333 187.094 93.0625 186.933C93.2917 186.768 93.5513 186.648 93.8413 186.573C94.1313 186.494 94.4357 186.455 94.7544 186.455L95.501 186.46ZM100.464 184.188L100.292 185.155H97.5205L97.6924 184.188H100.464ZM98.6914 182.765H99.9106L98.9546 188.394C98.9438 188.487 98.9385 188.582 98.9385 188.679C98.9421 188.772 98.9653 188.851 99.0083 188.915C99.0513 188.976 99.1318 189.008 99.25 189.012C99.3109 189.012 99.3717 189.008 99.4326 189.001C99.4971 188.99 99.5597 188.979 99.6206 188.969L99.5186 189.984C99.4076 190.027 99.293 190.057 99.1748 190.075C99.0566 190.093 98.9367 190.1 98.8149 190.097C98.507 190.093 98.2707 190.011 98.106 189.85C97.9448 189.688 97.8356 189.484 97.7783 189.237C97.7246 188.987 97.7103 188.729 97.7354 188.464L98.6914 182.765ZM103.289 188.437C103.311 188.276 103.275 188.142 103.182 188.034C103.092 187.927 102.979 187.835 102.843 187.76C102.711 187.681 102.585 187.613 102.467 187.556C102.278 187.463 102.097 187.365 101.925 187.261C101.757 187.157 101.606 187.039 101.474 186.906C101.345 186.77 101.244 186.614 101.173 186.439C101.101 186.264 101.073 186.059 101.087 185.827C101.101 185.555 101.166 185.311 101.28 185.096C101.398 184.878 101.552 184.693 101.742 184.543C101.932 184.389 102.147 184.273 102.387 184.194C102.63 184.111 102.881 184.072 103.139 184.076C103.497 184.086 103.81 184.167 104.079 184.317C104.347 184.464 104.551 184.672 104.691 184.94C104.834 185.205 104.902 185.519 104.895 185.88L103.676 185.875C103.683 185.735 103.67 185.605 103.638 185.483C103.606 185.358 103.543 185.256 103.45 185.177C103.361 185.098 103.235 185.059 103.074 185.059C102.931 185.062 102.802 185.094 102.688 185.155C102.573 185.213 102.478 185.295 102.403 185.402C102.328 185.51 102.279 185.633 102.258 185.773C102.24 185.884 102.252 185.982 102.295 186.068C102.342 186.151 102.406 186.224 102.489 186.289C102.571 186.349 102.661 186.403 102.757 186.45C102.858 186.496 102.947 186.539 103.026 186.579C103.291 186.704 103.536 186.842 103.762 186.992C103.991 187.143 104.172 187.327 104.304 187.545C104.437 187.76 104.492 188.032 104.471 188.362C104.456 188.648 104.387 188.903 104.261 189.125C104.139 189.343 103.978 189.526 103.778 189.672C103.577 189.819 103.352 189.93 103.101 190.005C102.85 190.081 102.591 190.115 102.322 190.107C101.957 190.097 101.635 190.013 101.355 189.855C101.076 189.694 100.86 189.474 100.706 189.194C100.552 188.915 100.478 188.591 100.485 188.222L101.667 188.228C101.663 188.399 101.681 188.553 101.721 188.689C101.764 188.826 101.839 188.933 101.946 189.012C102.057 189.087 102.206 189.125 102.392 189.125C102.542 189.125 102.68 189.099 102.806 189.049C102.935 188.999 103.04 188.924 103.123 188.824C103.208 188.72 103.264 188.591 103.289 188.437ZM108.08 188.818L108.542 185.907C108.556 185.768 108.553 185.637 108.531 185.515C108.513 185.39 108.463 185.288 108.381 185.209C108.302 185.13 108.18 185.089 108.016 185.085C107.854 185.082 107.717 185.116 107.602 185.188C107.487 185.256 107.394 185.35 107.323 185.472C107.255 185.59 107.208 185.721 107.183 185.864L105.964 185.875C105.985 185.596 106.059 185.345 106.184 185.123C106.313 184.897 106.478 184.706 106.678 184.548C106.879 184.391 107.103 184.273 107.35 184.194C107.6 184.111 107.86 184.072 108.128 184.076C108.504 184.079 108.821 184.16 109.079 184.317C109.337 184.471 109.525 184.686 109.643 184.962C109.761 185.238 109.801 185.563 109.761 185.939L109.321 188.657C109.289 188.865 109.267 189.074 109.256 189.286C109.249 189.493 109.267 189.701 109.31 189.909L109.305 190L108.102 190.005C108.051 189.812 108.028 189.615 108.032 189.415C108.035 189.214 108.051 189.015 108.08 188.818ZM108.649 186.46L108.515 187.271L107.989 187.266C107.824 187.266 107.667 187.289 107.516 187.336C107.369 187.382 107.233 187.451 107.108 187.54C106.986 187.63 106.886 187.739 106.807 187.868C106.732 187.997 106.684 188.149 106.662 188.324C106.644 188.453 106.646 188.575 106.667 188.689C106.693 188.804 106.743 188.897 106.818 188.969C106.897 189.04 107.013 189.078 107.167 189.082C107.328 189.082 107.484 189.048 107.634 188.979C107.785 188.908 107.912 188.811 108.016 188.689C108.123 188.568 108.191 188.426 108.22 188.265L108.429 188.797C108.375 188.972 108.3 189.141 108.204 189.302C108.111 189.459 107.996 189.601 107.86 189.726C107.727 189.848 107.577 189.944 107.409 190.016C107.24 190.088 107.058 190.122 106.861 190.118C106.539 190.115 106.266 190.038 106.044 189.887C105.822 189.733 105.656 189.531 105.545 189.28C105.438 189.026 105.393 188.745 105.411 188.437C105.429 188.097 105.509 187.801 105.652 187.551C105.796 187.3 105.982 187.094 106.211 186.933C106.44 186.768 106.7 186.648 106.99 186.573C107.28 186.494 107.584 186.455 107.903 186.455L108.649 186.46ZM112.345 185.375L111.152 192.234H109.933L111.33 184.188H112.447L112.345 185.375ZM115.1 186.863L115.046 187.32C115.007 187.631 114.941 187.954 114.848 188.287C114.755 188.616 114.624 188.922 114.456 189.205C114.291 189.484 114.076 189.708 113.811 189.876C113.546 190.045 113.22 190.122 112.833 190.107C112.511 190.097 112.25 190.005 112.049 189.833C111.852 189.658 111.702 189.438 111.598 189.173C111.498 188.904 111.433 188.621 111.405 188.324C111.376 188.023 111.369 187.746 111.383 187.492L111.48 186.788C111.53 186.502 111.605 186.201 111.706 185.886C111.806 185.571 111.94 185.275 112.108 185C112.28 184.72 112.492 184.495 112.742 184.323C112.993 184.147 113.292 184.065 113.639 184.076C114.015 184.086 114.311 184.181 114.525 184.36C114.74 184.536 114.894 184.763 114.987 185.042C115.08 185.322 115.131 185.623 115.138 185.945C115.145 186.267 115.132 186.573 115.1 186.863ZM113.827 187.325L113.875 186.858C113.893 186.704 113.908 186.532 113.918 186.342C113.929 186.149 113.918 185.961 113.886 185.778C113.854 185.596 113.784 185.445 113.677 185.327C113.569 185.205 113.406 185.141 113.188 185.134C113.005 185.13 112.842 185.168 112.699 185.247C112.556 185.325 112.432 185.431 112.329 185.563C112.228 185.696 112.144 185.843 112.076 186.004C112.012 186.161 111.965 186.319 111.937 186.477L111.738 187.803C111.727 187.993 111.745 188.183 111.792 188.373C111.838 188.562 111.92 188.723 112.039 188.856C112.16 188.985 112.332 189.055 112.554 189.065C112.791 189.076 112.986 189.028 113.14 188.92C113.294 188.809 113.417 188.666 113.51 188.491C113.603 188.312 113.673 188.118 113.72 187.911C113.766 187.703 113.802 187.508 113.827 187.325ZM117.619 185.375L116.427 192.234H115.208L116.604 184.188H117.721L117.619 185.375ZM120.375 186.863L120.321 187.32C120.281 187.631 120.215 187.954 120.122 188.287C120.029 188.616 119.898 188.922 119.73 189.205C119.565 189.484 119.35 189.708 119.085 189.876C118.82 190.045 118.495 190.122 118.108 190.107C117.786 190.097 117.524 190.005 117.324 189.833C117.127 189.658 116.976 189.438 116.873 189.173C116.772 188.904 116.708 188.621 116.679 188.324C116.651 188.023 116.643 187.746 116.658 187.492L116.754 186.788C116.805 186.502 116.88 186.201 116.98 185.886C117.08 185.571 117.215 185.275 117.383 185C117.555 184.72 117.766 184.495 118.017 184.323C118.267 184.147 118.566 184.065 118.914 184.076C119.29 184.086 119.585 184.181 119.8 184.36C120.015 184.536 120.169 184.763 120.262 185.042C120.355 185.322 120.405 185.623 120.412 185.945C120.419 186.267 120.407 186.573 120.375 186.863ZM119.102 187.325L119.15 186.858C119.168 186.704 119.182 186.532 119.193 186.342C119.204 186.149 119.193 185.961 119.161 185.778C119.128 185.596 119.059 185.445 118.951 185.327C118.844 185.205 118.681 185.141 118.462 185.134C118.28 185.13 118.117 185.168 117.974 185.247C117.83 185.325 117.707 185.431 117.603 185.563C117.503 185.696 117.419 185.843 117.351 186.004C117.286 186.161 117.24 186.319 117.211 186.477L117.012 187.803C117.001 187.993 117.019 188.183 117.066 188.373C117.112 188.562 117.195 188.723 117.313 188.856C117.435 188.985 117.607 189.055 117.829 189.065C118.065 189.076 118.26 189.028 118.414 188.92C118.568 188.809 118.692 188.666 118.785 188.491C118.878 188.312 118.948 188.118 118.994 187.911C119.041 187.703 119.076 187.508 119.102 187.325Z" fill="white"/>
</svg>
