<svg width="260" height="64" viewBox="0 0 260 64" fill="none" xmlns="http://www.w3.org/2000/svg">
<rect width="260" height="64" rx="10" fill="#D23C3C"/>
<path d="M83.1113 34.2656L85.3086 26.4336H87.0957L86.5195 29.5098L84.3223 37H82.8281L83.1113 34.2656ZM81.998 26.4336L83.5703 34.2559L83.7168 37H81.959L79.2832 26.4336H81.998ZM89.1074 34.1289L90.6406 26.4336H93.3652L90.6895 37H88.9414L89.1074 34.1289ZM87.3398 26.4336L89.5273 34.207L89.8301 37H88.3262L86.1289 29.5195L85.5723 26.4336H87.3398ZM99.6445 37.1953C98.8242 37.1953 98.0885 37.0651 97.4375 36.8047C96.7865 36.5378 96.2331 36.1699 95.7773 35.7012C95.3281 35.2324 94.9831 34.6888 94.7422 34.0703C94.5013 33.4453 94.3809 32.7812 94.3809 32.0781V31.6875C94.3809 30.8867 94.4948 30.1543 94.7227 29.4902C94.9505 28.8262 95.276 28.25 95.6992 27.7617C96.1289 27.2734 96.6497 26.8991 97.2617 26.6387C97.8737 26.3717 98.5638 26.2383 99.332 26.2383C100.081 26.2383 100.745 26.362 101.324 26.6094C101.904 26.8568 102.389 27.2083 102.779 27.6641C103.176 28.1198 103.476 28.6667 103.678 29.3047C103.88 29.9362 103.98 30.6393 103.98 31.4141V32.5859H95.582V30.7109H101.217V30.4961C101.217 30.1055 101.145 29.7572 101.002 29.4512C100.865 29.1387 100.657 28.8913 100.377 28.709C100.097 28.5267 99.7389 28.4355 99.3027 28.4355C98.9316 28.4355 98.6126 28.5169 98.3457 28.6797C98.0788 28.8424 97.8607 29.0703 97.6914 29.3633C97.5286 29.6562 97.4049 30.0013 97.3203 30.3984C97.2422 30.7891 97.2031 31.2188 97.2031 31.6875V32.0781C97.2031 32.5013 97.2617 32.8919 97.3789 33.25C97.5026 33.6081 97.6751 33.9173 97.8965 34.1777C98.1243 34.4382 98.3978 34.64 98.7168 34.7832C99.0423 34.9264 99.4102 34.998 99.8203 34.998C100.328 34.998 100.8 34.9004 101.236 34.7051C101.679 34.5033 102.06 34.2005 102.379 33.7969L103.746 35.2812C103.525 35.6003 103.222 35.9062 102.838 36.1992C102.46 36.4922 102.005 36.7331 101.471 36.9219C100.937 37.1042 100.328 37.1953 99.6445 37.1953ZM105.582 22H108.395V34.5781L108.111 37H105.582V22ZM115.084 31.6094V31.8145C115.084 32.6022 114.999 33.3249 114.83 33.9824C114.667 34.64 114.413 35.2096 114.068 35.6914C113.723 36.1667 113.294 36.5378 112.779 36.8047C112.271 37.0651 111.673 37.1953 110.982 37.1953C110.338 37.1953 109.778 37.0651 109.303 36.8047C108.834 36.5443 108.44 36.1764 108.121 35.7012C107.802 35.2259 107.545 34.6693 107.35 34.0312C107.154 33.3932 107.008 32.6966 106.91 31.9414V31.4922C107.008 30.737 107.154 30.0404 107.35 29.4023C107.545 28.7643 107.802 28.2077 108.121 27.7324C108.44 27.2572 108.834 26.8893 109.303 26.6289C109.771 26.3685 110.325 26.2383 110.963 26.2383C111.66 26.2383 112.265 26.3717 112.779 26.6387C113.3 26.8991 113.73 27.2702 114.068 27.752C114.413 28.2272 114.667 28.7936 114.83 29.4512C114.999 30.1022 115.084 30.8216 115.084 31.6094ZM112.271 31.8145V31.6094C112.271 31.1797 112.239 30.776 112.174 30.3984C112.115 30.0143 112.011 29.679 111.861 29.3926C111.712 29.0996 111.507 28.8685 111.246 28.6992C110.992 28.5299 110.663 28.4453 110.26 28.4453C109.876 28.4453 109.55 28.5104 109.283 28.6406C109.016 28.7708 108.795 28.9531 108.619 29.1875C108.45 29.4219 108.323 29.7018 108.238 30.0273C108.154 30.3464 108.102 30.6979 108.082 31.082V32.3613C108.102 32.8757 108.186 33.3314 108.336 33.7285C108.492 34.1191 108.727 34.4284 109.039 34.6562C109.358 34.8776 109.771 34.9883 110.279 34.9883C110.676 34.9883 111.005 34.9102 111.266 34.7539C111.526 34.5977 111.728 34.3763 111.871 34.0898C112.021 33.8034 112.125 33.4681 112.184 33.084C112.242 32.6934 112.271 32.2702 112.271 31.8145ZM132.818 31.7754C132.792 32.4395 132.695 33.0938 132.525 33.7383C132.356 34.3828 132.099 34.9655 131.754 35.4863C131.415 36.0072 130.982 36.4238 130.455 36.7363C129.928 37.0488 129.29 37.2051 128.541 37.2051C128.118 37.2051 127.737 37.1302 127.398 36.9805C127.06 36.8307 126.773 36.6191 126.539 36.3457C126.305 36.0658 126.132 35.7305 126.021 35.3398C125.911 34.9492 125.872 34.5098 125.904 34.0215L126.402 28.3965H128.355L127.867 34.0215C127.828 34.36 127.831 34.6367 127.877 34.8516C127.929 35.0664 128.007 35.2324 128.111 35.3496C128.222 35.4668 128.346 35.5514 128.482 35.6035C128.626 35.6491 128.766 35.6719 128.902 35.6719C129.215 35.6719 129.501 35.5742 129.762 35.3789C130.022 35.1836 130.247 34.9134 130.436 34.5684C130.624 34.2233 130.774 33.8197 130.885 33.3574C130.995 32.8887 131.057 32.3841 131.07 31.8438C131.116 30.9779 131.074 30.1771 130.943 29.4414C130.82 28.7057 130.605 28.0482 130.299 27.4688C129.999 26.8828 129.609 26.388 129.127 25.9844C128.645 25.5742 128.072 25.2617 127.408 25.0469C126.744 24.8255 125.986 24.7148 125.133 24.7148C124.332 24.7148 123.593 24.8385 122.916 25.0859C122.245 25.3333 121.643 25.6882 121.109 26.1504C120.582 26.6126 120.126 27.166 119.742 27.8105C119.365 28.4486 119.065 29.1615 118.844 29.9492C118.629 30.7305 118.502 31.5703 118.463 32.4688C118.417 33.4128 118.466 34.2721 118.609 35.0469C118.759 35.8216 118.997 36.502 119.322 37.0879C119.654 37.6803 120.068 38.1751 120.562 38.5723C121.057 38.9694 121.633 39.2689 122.291 39.4707C122.949 39.6725 123.681 39.7734 124.488 39.7734C125.055 39.7734 125.631 39.7083 126.217 39.5781C126.809 39.4544 127.307 39.2949 127.711 39.0996L128.082 40.5547C127.626 40.8477 127.057 41.0658 126.373 41.209C125.696 41.3522 125.055 41.4238 124.449 41.4238C123.414 41.4238 122.47 41.2969 121.617 41.043C120.771 40.7956 120.022 40.4245 119.371 39.9297C118.72 39.4414 118.176 38.8359 117.74 38.1133C117.311 37.3906 116.992 36.5573 116.783 35.6133C116.581 34.6693 116.503 33.6211 116.549 32.4688C116.594 31.401 116.76 30.3952 117.047 29.4512C117.333 28.5072 117.724 27.651 118.219 26.8828C118.714 26.1146 119.306 25.4538 119.996 24.9004C120.693 24.3405 121.474 23.9108 122.34 23.6113C123.206 23.3118 124.15 23.1621 125.172 23.1621C126.188 23.1621 127.109 23.2956 127.936 23.5625C128.769 23.8294 129.498 24.2135 130.123 24.7148C130.748 25.2096 131.269 25.8118 131.686 26.5215C132.102 27.2246 132.405 28.0189 132.594 28.9043C132.783 29.7897 132.857 30.7467 132.818 31.7754ZM122.955 32.8008C122.923 33.2305 122.926 33.6113 122.965 33.9434C123.004 34.2754 123.079 34.5553 123.189 34.7832C123.3 35.0111 123.443 35.1836 123.619 35.3008C123.801 35.4115 124.016 35.4668 124.264 35.4668C124.4 35.4668 124.55 35.4342 124.713 35.3691C124.876 35.2975 125.042 35.1803 125.211 35.0176C125.38 34.8548 125.54 34.6302 125.689 34.3438C125.846 34.0508 125.976 33.6829 126.08 33.2402L126.91 34.2266C126.76 34.7148 126.575 35.1445 126.354 35.5156C126.132 35.8802 125.878 36.1862 125.592 36.4336C125.312 36.681 125.006 36.8665 124.674 36.9902C124.342 37.1139 123.984 37.1758 123.6 37.1758C123.124 37.1758 122.701 37.0749 122.33 36.873C121.959 36.6647 121.65 36.3685 121.402 35.9844C121.155 35.6003 120.976 35.1413 120.865 34.6074C120.761 34.0671 120.742 33.4648 120.807 32.8008C120.878 32.1367 121.008 31.5215 121.197 30.9551C121.386 30.3887 121.62 29.8841 121.9 29.4414C122.18 28.9922 122.499 28.6113 122.857 28.2988C123.222 27.9798 123.616 27.7389 124.039 27.5762C124.462 27.4134 124.905 27.332 125.367 27.332C126.116 27.332 126.705 27.4395 127.135 27.6543C127.564 27.8691 127.971 28.1165 128.355 28.3965L127.359 29.7344C127.171 29.5651 126.923 29.4023 126.617 29.2461C126.318 29.0833 125.96 29.002 125.543 29.002C125.159 29.002 124.82 29.0833 124.527 29.2461C124.241 29.4089 123.99 29.653 123.775 29.9785C123.567 30.2975 123.395 30.6947 123.258 31.1699C123.121 31.6387 123.02 32.1823 122.955 32.8008ZM141.002 34.6953V22H143.834V37H141.285L141.002 34.6953ZM134.322 31.8438V31.6387C134.322 30.8314 134.413 30.099 134.596 29.4414C134.778 28.7773 135.045 28.2077 135.396 27.7324C135.748 27.2572 136.181 26.8893 136.695 26.6289C137.21 26.3685 137.796 26.2383 138.453 26.2383C139.072 26.2383 139.612 26.3685 140.074 26.6289C140.543 26.8893 140.94 27.2604 141.266 27.7422C141.598 28.2174 141.865 28.7806 142.066 29.4316C142.268 30.0762 142.415 30.7826 142.506 31.5508V32C142.415 32.7357 142.268 33.4193 142.066 34.0508C141.865 34.6823 141.598 35.2357 141.266 35.7109C140.94 36.1797 140.543 36.5443 140.074 36.8047C139.605 37.0651 139.059 37.1953 138.434 37.1953C137.776 37.1953 137.19 37.0618 136.676 36.7949C136.168 36.528 135.738 36.1536 135.387 35.6719C135.042 35.1901 134.778 34.6237 134.596 33.9727C134.413 33.3216 134.322 32.612 134.322 31.8438ZM137.135 31.6387V31.8438C137.135 32.2799 137.167 32.6868 137.232 33.0645C137.304 33.4421 137.418 33.7773 137.574 34.0703C137.737 34.3568 137.945 34.5814 138.199 34.7441C138.46 34.9004 138.775 34.9785 139.146 34.9785C139.628 34.9785 140.025 34.8711 140.338 34.6562C140.65 34.4349 140.888 34.1322 141.051 33.748C141.22 33.3639 141.318 32.9212 141.344 32.4199V31.1406C141.324 30.7305 141.266 30.3626 141.168 30.0371C141.077 29.7051 140.94 29.4219 140.758 29.1875C140.582 28.9531 140.361 28.7708 140.094 28.6406C139.833 28.5104 139.524 28.4453 139.166 28.4453C138.801 28.4453 138.489 28.5299 138.229 28.6992C137.968 28.862 137.757 29.0866 137.594 29.373C137.438 29.6595 137.32 29.998 137.242 30.3887C137.171 30.7728 137.135 31.1895 137.135 31.6387ZM151.734 34.6172V29.9102C151.734 29.5716 151.679 29.2819 151.568 29.041C151.458 28.7936 151.285 28.6016 151.051 28.4648C150.823 28.3281 150.527 28.2598 150.162 28.2598C149.85 28.2598 149.579 28.3151 149.352 28.4258C149.124 28.5299 148.948 28.6829 148.824 28.8848C148.701 29.0801 148.639 29.3112 148.639 29.5781H145.826C145.826 29.1289 145.93 28.7025 146.139 28.2988C146.347 27.8952 146.65 27.5404 147.047 27.2344C147.444 26.9219 147.916 26.6777 148.463 26.502C149.016 26.3262 149.635 26.2383 150.318 26.2383C151.139 26.2383 151.868 26.375 152.506 26.6484C153.144 26.9219 153.645 27.332 154.01 27.8789C154.381 28.4258 154.566 29.1094 154.566 29.9297V34.4512C154.566 35.0306 154.602 35.5059 154.674 35.877C154.745 36.2415 154.85 36.5605 154.986 36.834V37H152.145C152.008 36.7135 151.904 36.3555 151.832 35.9258C151.767 35.4896 151.734 35.0534 151.734 34.6172ZM152.105 30.5645L152.125 32.1562H150.553C150.182 32.1562 149.859 32.1986 149.586 32.2832C149.312 32.3678 149.088 32.4883 148.912 32.6445C148.736 32.7943 148.606 32.9701 148.521 33.1719C148.443 33.3737 148.404 33.5951 148.404 33.8359C148.404 34.0768 148.46 34.2949 148.57 34.4902C148.681 34.679 148.84 34.8288 149.049 34.9395C149.257 35.0436 149.501 35.0957 149.781 35.0957C150.204 35.0957 150.572 35.0111 150.885 34.8418C151.197 34.6725 151.438 34.4642 151.607 34.2168C151.783 33.9694 151.874 33.735 151.881 33.5137L152.623 34.7051C152.519 34.972 152.376 35.2487 152.193 35.5352C152.018 35.8216 151.793 36.0918 151.52 36.3457C151.246 36.5931 150.917 36.7982 150.533 36.9609C150.149 37.1172 149.693 37.1953 149.166 37.1953C148.495 37.1953 147.887 37.0618 147.34 36.7949C146.799 36.5215 146.37 36.1471 146.051 35.6719C145.738 35.1901 145.582 34.6432 145.582 34.0312C145.582 33.4779 145.686 32.9863 145.895 32.5566C146.103 32.127 146.409 31.7656 146.812 31.4727C147.223 31.1732 147.734 30.9486 148.346 30.7988C148.958 30.6426 149.667 30.5645 150.475 30.5645H152.105ZM159.488 28.6895V37H156.676V26.4336H159.312L159.488 28.6895ZM159.078 31.3457H158.316C158.316 30.5645 158.417 29.8613 158.619 29.2363C158.821 28.6048 159.104 28.0677 159.469 27.625C159.833 27.1758 160.266 26.834 160.768 26.5996C161.275 26.3587 161.842 26.2383 162.467 26.2383C162.962 26.2383 163.414 26.3099 163.824 26.4531C164.234 26.5964 164.586 26.8242 164.879 27.1367C165.178 27.4492 165.406 27.8626 165.562 28.377C165.725 28.8913 165.807 29.5195 165.807 30.2617V37H162.975V30.252C162.975 29.7832 162.91 29.4186 162.779 29.1582C162.649 28.8978 162.457 28.7155 162.203 28.6113C161.956 28.5007 161.65 28.4453 161.285 28.4453C160.908 28.4453 160.579 28.5202 160.299 28.6699C160.025 28.8197 159.798 29.028 159.615 29.2949C159.439 29.5553 159.306 29.8613 159.215 30.2129C159.124 30.5645 159.078 30.9421 159.078 31.3457ZM170.914 26.4336V37H168.092V26.4336H170.914ZM167.916 23.6797C167.916 23.2695 168.059 22.931 168.346 22.6641C168.632 22.3971 169.016 22.2637 169.498 22.2637C169.973 22.2637 170.354 22.3971 170.641 22.6641C170.934 22.931 171.08 23.2695 171.08 23.6797C171.08 24.0898 170.934 24.4284 170.641 24.6953C170.354 24.9622 169.973 25.0957 169.498 25.0957C169.016 25.0957 168.632 24.9622 168.346 24.6953C168.059 24.4284 167.916 24.0898 167.916 23.6797ZM176.373 35.8086L179.176 26.4336H182.193L177.945 38.5918C177.854 38.8587 177.73 39.1452 177.574 39.4512C177.424 39.7572 177.219 40.0469 176.959 40.3203C176.705 40.6003 176.383 40.8281 175.992 41.0039C175.608 41.1797 175.136 41.2676 174.576 41.2676C174.309 41.2676 174.091 41.2513 173.922 41.2188C173.753 41.1862 173.551 41.1406 173.316 41.082V39.0215C173.388 39.0215 173.463 39.0215 173.541 39.0215C173.619 39.028 173.694 39.0312 173.766 39.0312C174.137 39.0312 174.439 38.9889 174.674 38.9043C174.908 38.8197 175.097 38.6895 175.24 38.5137C175.383 38.3444 175.497 38.123 175.582 37.8496L176.373 35.8086ZM175.201 26.4336L177.496 34.0898L177.896 37.0684L175.982 37.2734L172.184 26.4336H175.201ZM188.863 34.6172V29.9102C188.863 29.5716 188.808 29.2819 188.697 29.041C188.587 28.7936 188.414 28.6016 188.18 28.4648C187.952 28.3281 187.656 28.2598 187.291 28.2598C186.979 28.2598 186.708 28.3151 186.48 28.4258C186.253 28.5299 186.077 28.6829 185.953 28.8848C185.829 29.0801 185.768 29.3112 185.768 29.5781H182.955C182.955 29.1289 183.059 28.7025 183.268 28.2988C183.476 27.8952 183.779 27.5404 184.176 27.2344C184.573 26.9219 185.045 26.6777 185.592 26.502C186.145 26.3262 186.764 26.2383 187.447 26.2383C188.268 26.2383 188.997 26.375 189.635 26.6484C190.273 26.9219 190.774 27.332 191.139 27.8789C191.51 28.4258 191.695 29.1094 191.695 29.9297V34.4512C191.695 35.0306 191.731 35.5059 191.803 35.877C191.874 36.2415 191.979 36.5605 192.115 36.834V37H189.273C189.137 36.7135 189.033 36.3555 188.961 35.9258C188.896 35.4896 188.863 35.0534 188.863 34.6172ZM189.234 30.5645L189.254 32.1562H187.682C187.311 32.1562 186.988 32.1986 186.715 32.2832C186.441 32.3678 186.217 32.4883 186.041 32.6445C185.865 32.7943 185.735 32.9701 185.65 33.1719C185.572 33.3737 185.533 33.5951 185.533 33.8359C185.533 34.0768 185.589 34.2949 185.699 34.4902C185.81 34.679 185.969 34.8288 186.178 34.9395C186.386 35.0436 186.63 35.0957 186.91 35.0957C187.333 35.0957 187.701 35.0111 188.014 34.8418C188.326 34.6725 188.567 34.4642 188.736 34.2168C188.912 33.9694 189.003 33.735 189.01 33.5137L189.752 34.7051C189.648 34.972 189.505 35.2487 189.322 35.5352C189.146 35.8216 188.922 36.0918 188.648 36.3457C188.375 36.5931 188.046 36.7982 187.662 36.9609C187.278 37.1172 186.822 37.1953 186.295 37.1953C185.624 37.1953 185.016 37.0618 184.469 36.7949C183.928 36.5215 183.499 36.1471 183.18 35.6719C182.867 35.1901 182.711 34.6432 182.711 34.0312C182.711 33.4779 182.815 32.9863 183.023 32.5566C183.232 32.127 183.538 31.7656 183.941 31.4727C184.352 31.1732 184.863 30.9486 185.475 30.7988C186.087 30.6426 186.796 30.5645 187.604 30.5645H189.234ZM196.676 28.7383V37H193.863V26.4336H196.51L196.676 28.7383ZM199.859 26.3652L199.811 28.9727C199.674 28.9531 199.508 28.9368 199.312 28.9238C199.124 28.9043 198.951 28.8945 198.795 28.8945C198.398 28.8945 198.053 28.9466 197.76 29.0508C197.473 29.1484 197.232 29.2949 197.037 29.4902C196.848 29.6855 196.705 29.9232 196.607 30.2031C196.516 30.4831 196.464 30.8021 196.451 31.1602L195.885 30.9844C195.885 30.3008 195.953 29.6725 196.09 29.0996C196.227 28.5202 196.425 28.0156 196.686 27.5859C196.952 27.1562 197.278 26.8242 197.662 26.5898C198.046 26.3555 198.486 26.2383 198.98 26.2383C199.137 26.2383 199.296 26.2513 199.459 26.2773C199.622 26.2969 199.755 26.3262 199.859 26.3652ZM199.781 35.6426C199.781 35.2259 199.924 34.8776 200.211 34.5977C200.504 34.3177 200.891 34.1777 201.373 34.1777C201.855 34.1777 202.239 34.3177 202.525 34.5977C202.818 34.8776 202.965 35.2259 202.965 35.6426C202.965 36.0592 202.818 36.4076 202.525 36.6875C202.239 36.9674 201.855 37.1074 201.373 37.1074C200.891 37.1074 200.504 36.9674 200.211 36.6875C199.924 36.4076 199.781 36.0592 199.781 35.6426ZM204.996 31.8242V31.6191C204.996 30.8444 205.107 30.1315 205.328 29.4805C205.549 28.8229 205.872 28.2533 206.295 27.7715C206.718 27.2897 207.239 26.9154 207.857 26.6484C208.476 26.375 209.186 26.2383 209.986 26.2383C210.787 26.2383 211.5 26.375 212.125 26.6484C212.75 26.9154 213.274 27.2897 213.697 27.7715C214.127 28.2533 214.452 28.8229 214.674 29.4805C214.895 30.1315 215.006 30.8444 215.006 31.6191V31.8242C215.006 32.5924 214.895 33.3053 214.674 33.9629C214.452 34.6139 214.127 35.1836 213.697 35.6719C213.274 36.1536 212.753 36.528 212.135 36.7949C211.516 37.0618 210.807 37.1953 210.006 37.1953C209.205 37.1953 208.492 37.0618 207.867 36.7949C207.249 36.528 206.725 36.1536 206.295 35.6719C205.872 35.1836 205.549 34.6139 205.328 33.9629C205.107 33.3053 204.996 32.5924 204.996 31.8242ZM207.809 31.6191V31.8242C207.809 32.2669 207.848 32.6803 207.926 33.0645C208.004 33.4486 208.128 33.7871 208.297 34.0801C208.473 34.3665 208.701 34.5911 208.98 34.7539C209.26 34.9167 209.602 34.998 210.006 34.998C210.396 34.998 210.732 34.9167 211.012 34.7539C211.292 34.5911 211.516 34.3665 211.686 34.0801C211.855 33.7871 211.979 33.4486 212.057 33.0645C212.141 32.6803 212.184 32.2669 212.184 31.8242V31.6191C212.184 31.1895 212.141 30.7858 212.057 30.4082C211.979 30.0241 211.852 29.6855 211.676 29.3926C211.507 29.0931 211.282 28.8587 211.002 28.6895C210.722 28.5202 210.383 28.4355 209.986 28.4355C209.589 28.4355 209.251 28.5202 208.971 28.6895C208.697 28.8587 208.473 29.0931 208.297 29.3926C208.128 29.6855 208.004 30.0241 207.926 30.4082C207.848 30.7858 207.809 31.1895 207.809 31.6191ZM219.488 28.6895V37H216.676V26.4336H219.312L219.488 28.6895ZM219.078 31.3457H218.316C218.316 30.5645 218.417 29.8613 218.619 29.2363C218.821 28.6048 219.104 28.0677 219.469 27.625C219.833 27.1758 220.266 26.834 220.768 26.5996C221.275 26.3587 221.842 26.2383 222.467 26.2383C222.962 26.2383 223.414 26.3099 223.824 26.4531C224.234 26.5964 224.586 26.8242 224.879 27.1367C225.178 27.4492 225.406 27.8626 225.562 28.377C225.725 28.8913 225.807 29.5195 225.807 30.2617V37H222.975V30.252C222.975 29.7832 222.91 29.4186 222.779 29.1582C222.649 28.8978 222.457 28.7155 222.203 28.6113C221.956 28.5007 221.65 28.4453 221.285 28.4453C220.908 28.4453 220.579 28.5202 220.299 28.6699C220.025 28.8197 219.798 29.028 219.615 29.2949C219.439 29.5553 219.306 29.8613 219.215 30.2129C219.124 30.5645 219.078 30.9421 219.078 31.3457ZM232.809 37.1953C231.988 37.1953 231.253 37.0651 230.602 36.8047C229.951 36.5378 229.397 36.1699 228.941 35.7012C228.492 35.2324 228.147 34.6888 227.906 34.0703C227.665 33.4453 227.545 32.7812 227.545 32.0781V31.6875C227.545 30.8867 227.659 30.1543 227.887 29.4902C228.115 28.8262 228.44 28.25 228.863 27.7617C229.293 27.2734 229.814 26.8991 230.426 26.6387C231.038 26.3717 231.728 26.2383 232.496 26.2383C233.245 26.2383 233.909 26.362 234.488 26.6094C235.068 26.8568 235.553 27.2083 235.943 27.6641C236.34 28.1198 236.64 28.6667 236.842 29.3047C237.044 29.9362 237.145 30.6393 237.145 31.4141V32.5859H228.746V30.7109H234.381V30.4961C234.381 30.1055 234.309 29.7572 234.166 29.4512C234.029 29.1387 233.821 28.8913 233.541 28.709C233.261 28.5267 232.903 28.4355 232.467 28.4355C232.096 28.4355 231.777 28.5169 231.51 28.6797C231.243 28.8424 231.025 29.0703 230.855 29.3633C230.693 29.6562 230.569 30.0013 230.484 30.3984C230.406 30.7891 230.367 31.2188 230.367 31.6875V32.0781C230.367 32.5013 230.426 32.8919 230.543 33.25C230.667 33.6081 230.839 33.9173 231.061 34.1777C231.288 34.4382 231.562 34.64 231.881 34.7832C232.206 34.9264 232.574 34.998 232.984 34.998C233.492 34.998 233.964 34.9004 234.4 34.7051C234.843 34.5033 235.224 34.2005 235.543 33.7969L236.91 35.2812C236.689 35.6003 236.386 35.9062 236.002 36.1992C235.624 36.4922 235.169 36.7331 234.635 36.9219C234.101 37.1042 233.492 37.1953 232.809 37.1953Z" fill="white"/>
<path d="M55.1667 19.8334H31.8334C30.2292 19.8334 28.9313 21.1459 28.9313 22.75L28.9167 40.25C28.9167 41.8542 30.2292 43.1667 31.8334 43.1667H55.1667C56.7709 43.1667 58.0834 41.8542 58.0834 40.25V22.75C58.0834 21.1459 56.7709 19.8334 55.1667 19.8334ZM55.1667 25.6667L43.5001 32.9584L31.8334 25.6667V22.75L43.5001 30.0417L55.1667 22.75V25.6667Z" fill="white"/>
</svg>
