<svg width="260" height="64" viewBox="0 0 260 64" fill="none" xmlns="http://www.w3.org/2000/svg">
<rect width="260" height="64" rx="10" fill="#48A853"/>
<path d="M90.293 31.0801V33.5312H80.5469V31.0801H90.293ZM86.7578 27.2227V37.5742H84.0918V27.2227H86.7578ZM101.533 24.7812V26.2949L96.0352 39H93.0664L98.5645 26.9785H91.4844V24.7812H101.533ZM105.352 36.8613H105.537C106.318 36.8613 106.989 36.7669 107.549 36.5781C108.115 36.3828 108.581 36.1029 108.945 35.7383C109.31 35.3737 109.58 34.9277 109.756 34.4004C109.932 33.8665 110.02 33.2611 110.02 32.584V29.8887C110.02 29.3743 109.967 28.9219 109.863 28.5312C109.766 28.1406 109.622 27.8184 109.434 27.5645C109.251 27.304 109.036 27.1087 108.789 26.9785C108.548 26.8483 108.281 26.7832 107.988 26.7832C107.676 26.7832 107.399 26.8613 107.158 27.0176C106.917 27.1673 106.712 27.3724 106.543 27.6328C106.38 27.8932 106.253 28.1927 106.162 28.5312C106.077 28.8633 106.035 29.2116 106.035 29.5762C106.035 29.9408 106.077 30.2891 106.162 30.6211C106.247 30.9466 106.374 31.2363 106.543 31.4902C106.712 31.7376 106.924 31.9362 107.178 32.0859C107.432 32.2292 107.731 32.3008 108.076 32.3008C108.408 32.3008 108.704 32.2389 108.965 32.1152C109.232 31.985 109.456 31.8158 109.639 31.6074C109.827 31.3991 109.971 31.168 110.068 30.9141C110.173 30.6602 110.225 30.403 110.225 30.1426L111.152 30.6504C111.152 31.1061 111.055 31.5553 110.859 31.998C110.664 32.4408 110.391 32.8444 110.039 33.209C109.694 33.5671 109.294 33.8535 108.838 34.0684C108.382 34.2832 107.894 34.3906 107.373 34.3906C106.709 34.3906 106.12 34.2702 105.605 34.0293C105.091 33.7819 104.655 33.4434 104.297 33.0137C103.945 32.5775 103.678 32.0697 103.496 31.4902C103.314 30.9108 103.223 30.2826 103.223 29.6055C103.223 28.9154 103.333 28.2676 103.555 27.6621C103.783 27.0566 104.105 26.5228 104.521 26.0605C104.945 25.5983 105.449 25.237 106.035 24.9766C106.628 24.7096 107.285 24.5762 108.008 24.5762C108.73 24.5762 109.388 24.7161 109.98 24.9961C110.573 25.276 111.081 25.6732 111.504 26.1875C111.927 26.6953 112.253 27.304 112.48 28.0137C112.715 28.7233 112.832 29.5111 112.832 30.377V31.3535C112.832 32.278 112.731 33.1374 112.529 33.9316C112.334 34.7259 112.038 35.4453 111.641 36.0898C111.25 36.7279 110.762 37.2747 110.176 37.7305C109.596 38.1862 108.923 38.5345 108.154 38.7754C107.386 39.0163 106.527 39.1367 105.576 39.1367H105.352V36.8613ZM122.1 24.6348H122.51V26.8809H122.344C121.602 26.8809 120.941 26.9915 120.361 27.2129C119.782 27.4342 119.29 27.75 118.887 28.1602C118.49 28.5638 118.184 29.0521 117.969 29.625C117.76 30.1979 117.656 30.8392 117.656 31.5488V33.9121C117.656 34.4199 117.705 34.8691 117.803 35.2598C117.907 35.6439 118.053 35.9661 118.242 36.2266C118.438 36.4805 118.665 36.6725 118.926 36.8027C119.186 36.9264 119.479 36.9883 119.805 36.9883C120.111 36.9883 120.387 36.9232 120.635 36.793C120.889 36.6628 121.104 36.4805 121.279 36.2461C121.462 36.0052 121.598 35.7253 121.689 35.4062C121.787 35.0807 121.836 34.7259 121.836 34.3418C121.836 33.9577 121.787 33.6029 121.689 33.2773C121.598 32.9518 121.462 32.6719 121.279 32.4375C121.097 32.1966 120.876 32.0111 120.615 31.8809C120.355 31.7507 120.062 31.6855 119.736 31.6855C119.294 31.6855 118.903 31.7897 118.564 31.998C118.232 32.1999 117.972 32.4603 117.783 32.7793C117.594 33.0983 117.493 33.4336 117.48 33.7852L116.631 33.2383C116.65 32.737 116.755 32.2617 116.943 31.8125C117.139 31.3633 117.406 30.9661 117.744 30.6211C118.089 30.2695 118.503 29.9961 118.984 29.8008C119.466 29.599 120.01 29.498 120.615 29.498C121.279 29.498 121.862 29.625 122.363 29.8789C122.871 30.1328 123.294 30.4811 123.633 30.9238C123.971 31.3665 124.225 31.8776 124.395 32.457C124.564 33.0365 124.648 33.6549 124.648 34.3125C124.648 35.0026 124.535 35.6439 124.307 36.2363C124.085 36.8288 123.763 37.3464 123.34 37.7891C122.923 38.2318 122.422 38.5768 121.836 38.8242C121.25 39.0716 120.592 39.1953 119.863 39.1953C119.108 39.1953 118.421 39.0586 117.803 38.7852C117.191 38.5052 116.663 38.1146 116.221 37.6133C115.778 37.112 115.436 36.5163 115.195 35.8262C114.961 35.1361 114.844 34.3809 114.844 33.5605V32.4668C114.844 31.321 115.01 30.2728 115.342 29.3223C115.68 28.3652 116.165 27.5384 116.797 26.8418C117.428 26.1387 118.19 25.5951 119.082 25.2109C119.974 24.8268 120.98 24.6348 122.1 24.6348ZM129.209 30.6699H130.713C131.195 30.6699 131.592 30.5885 131.904 30.4258C132.217 30.2565 132.448 30.0221 132.598 29.7227C132.754 29.4167 132.832 29.0618 132.832 28.6582C132.832 28.2936 132.76 27.9714 132.617 27.6914C132.48 27.4049 132.269 27.1836 131.982 27.0273C131.696 26.8646 131.335 26.7832 130.898 26.7832C130.553 26.7832 130.234 26.8516 129.941 26.9883C129.648 27.125 129.414 27.3171 129.238 27.5645C129.062 27.8118 128.975 28.1113 128.975 28.4629H126.152C126.152 27.6816 126.361 27.0013 126.777 26.4219C127.201 25.8424 127.767 25.39 128.477 25.0645C129.186 24.7389 129.967 24.5762 130.82 24.5762C131.784 24.5762 132.627 24.7324 133.35 25.0449C134.072 25.3509 134.635 25.8034 135.039 26.4023C135.443 27.0013 135.645 27.7435 135.645 28.6289C135.645 29.0781 135.54 29.5143 135.332 29.9375C135.124 30.3542 134.824 30.7318 134.434 31.0703C134.049 31.4023 133.581 31.6693 133.027 31.8711C132.474 32.0664 131.852 32.1641 131.162 32.1641H129.209V30.6699ZM129.209 32.8086V31.3535H131.162C131.937 31.3535 132.617 31.4414 133.203 31.6172C133.789 31.793 134.281 32.0469 134.678 32.3789C135.075 32.7044 135.374 33.0918 135.576 33.541C135.778 33.9837 135.879 34.4753 135.879 35.0156C135.879 35.6797 135.752 36.2721 135.498 36.793C135.244 37.3073 134.886 37.7435 134.424 38.1016C133.968 38.4596 133.434 38.7331 132.822 38.9219C132.21 39.1042 131.543 39.1953 130.82 39.1953C130.221 39.1953 129.632 39.1139 129.053 38.9512C128.48 38.7819 127.959 38.5312 127.49 38.1992C127.028 37.8607 126.657 37.4375 126.377 36.9297C126.104 36.4154 125.967 35.8066 125.967 35.1035H128.789C128.789 35.4681 128.88 35.7936 129.062 36.0801C129.245 36.3665 129.495 36.5911 129.814 36.7539C130.14 36.9167 130.501 36.998 130.898 36.998C131.348 36.998 131.732 36.9167 132.051 36.7539C132.376 36.5846 132.624 36.3503 132.793 36.0508C132.969 35.7448 133.057 35.39 133.057 34.9863C133.057 34.4655 132.962 34.0488 132.773 33.7363C132.585 33.4173 132.314 33.1829 131.963 33.0332C131.611 32.8835 131.195 32.8086 130.713 32.8086H129.209ZM147.393 35.1035C147.393 35.9954 147.184 36.7474 146.768 37.3594C146.351 37.9648 145.778 38.4238 145.049 38.7363C144.326 39.0423 143.506 39.1953 142.588 39.1953C141.67 39.1953 140.846 39.0423 140.117 38.7363C139.388 38.4238 138.812 37.9648 138.389 37.3594C137.965 36.7474 137.754 35.9954 137.754 35.1035C137.754 34.5046 137.874 33.9642 138.115 33.4824C138.356 32.9941 138.691 32.5775 139.121 32.2324C139.557 31.8809 140.068 31.6139 140.654 31.4316C141.24 31.2428 141.878 31.1484 142.568 31.1484C143.493 31.1484 144.32 31.3112 145.049 31.6367C145.778 31.9622 146.351 32.4212 146.768 33.0137C147.184 33.6061 147.393 34.3027 147.393 35.1035ZM144.561 34.918C144.561 34.4818 144.476 34.1074 144.307 33.7949C144.144 33.4759 143.913 33.2318 143.613 33.0625C143.314 32.8932 142.965 32.8086 142.568 32.8086C142.171 32.8086 141.823 32.8932 141.523 33.0625C141.224 33.2318 140.99 33.4759 140.82 33.7949C140.658 34.1074 140.576 34.4818 140.576 34.918C140.576 35.3477 140.658 35.7188 140.82 36.0312C140.99 36.3438 141.224 36.5846 141.523 36.7539C141.829 36.9167 142.184 36.998 142.588 36.998C142.992 36.998 143.34 36.9167 143.633 36.7539C143.932 36.5846 144.16 36.3438 144.316 36.0312C144.479 35.7188 144.561 35.3477 144.561 34.918ZM147.09 28.5508C147.09 29.2734 146.898 29.9147 146.514 30.4746C146.13 31.028 145.596 31.4609 144.912 31.7734C144.235 32.0859 143.46 32.2422 142.588 32.2422C141.709 32.2422 140.928 32.0859 140.244 31.7734C139.561 31.4609 139.027 31.028 138.643 30.4746C138.258 29.9147 138.066 29.2734 138.066 28.5508C138.066 27.6914 138.258 26.9688 138.643 26.3828C139.033 25.7904 139.567 25.3411 140.244 25.0352C140.928 24.7292 141.702 24.5762 142.568 24.5762C143.447 24.5762 144.225 24.7292 144.902 25.0352C145.586 25.3411 146.12 25.7904 146.504 26.3828C146.895 26.9688 147.09 27.6914 147.09 28.5508ZM144.277 28.6777C144.277 28.2936 144.209 27.9616 144.072 27.6816C143.936 27.3952 143.74 27.1738 143.486 27.0176C143.239 26.8613 142.933 26.7832 142.568 26.7832C142.217 26.7832 141.914 26.8581 141.66 27.0078C141.413 27.1576 141.221 27.3757 141.084 27.6621C140.954 27.9421 140.889 28.2806 140.889 28.6777C140.889 29.0618 140.954 29.4004 141.084 29.6934C141.221 29.9798 141.416 30.2044 141.67 30.3672C141.924 30.5299 142.23 30.6113 142.588 30.6113C142.946 30.6113 143.249 30.5299 143.496 30.3672C143.75 30.2044 143.942 29.9798 144.072 29.6934C144.209 29.4004 144.277 29.0618 144.277 28.6777ZM151.289 36.8613H151.475C152.256 36.8613 152.926 36.7669 153.486 36.5781C154.053 36.3828 154.518 36.1029 154.883 35.7383C155.247 35.3737 155.518 34.9277 155.693 34.4004C155.869 33.8665 155.957 33.2611 155.957 32.584V29.8887C155.957 29.3743 155.905 28.9219 155.801 28.5312C155.703 28.1406 155.56 27.8184 155.371 27.5645C155.189 27.304 154.974 27.1087 154.727 26.9785C154.486 26.8483 154.219 26.7832 153.926 26.7832C153.613 26.7832 153.337 26.8613 153.096 27.0176C152.855 27.1673 152.65 27.3724 152.48 27.6328C152.318 27.8932 152.191 28.1927 152.1 28.5312C152.015 28.8633 151.973 29.2116 151.973 29.5762C151.973 29.9408 152.015 30.2891 152.1 30.6211C152.184 30.9466 152.311 31.2363 152.48 31.4902C152.65 31.7376 152.861 31.9362 153.115 32.0859C153.369 32.2292 153.669 32.3008 154.014 32.3008C154.346 32.3008 154.642 32.2389 154.902 32.1152C155.169 31.985 155.394 31.8158 155.576 31.6074C155.765 31.3991 155.908 31.168 156.006 30.9141C156.11 30.6602 156.162 30.403 156.162 30.1426L157.09 30.6504C157.09 31.1061 156.992 31.5553 156.797 31.998C156.602 32.4408 156.328 32.8444 155.977 33.209C155.632 33.5671 155.231 33.8535 154.775 34.0684C154.32 34.2832 153.831 34.3906 153.311 34.3906C152.646 34.3906 152.057 34.2702 151.543 34.0293C151.029 33.7819 150.592 33.4434 150.234 33.0137C149.883 32.5775 149.616 32.0697 149.434 31.4902C149.251 30.9108 149.16 30.2826 149.16 29.6055C149.16 28.9154 149.271 28.2676 149.492 27.6621C149.72 27.0566 150.042 26.5228 150.459 26.0605C150.882 25.5983 151.387 25.237 151.973 24.9766C152.565 24.7096 153.223 24.5762 153.945 24.5762C154.668 24.5762 155.326 24.7161 155.918 24.9961C156.51 25.276 157.018 25.6732 157.441 26.1875C157.865 26.6953 158.19 27.304 158.418 28.0137C158.652 28.7233 158.77 29.5111 158.77 30.377V31.3535C158.77 32.278 158.669 33.1374 158.467 33.9316C158.271 34.7259 157.975 35.4453 157.578 36.0898C157.188 36.7279 156.699 37.2747 156.113 37.7305C155.534 38.1862 154.86 38.5345 154.092 38.7754C153.324 39.0163 152.464 39.1367 151.514 39.1367H151.289V36.8613ZM162.773 36.8613H162.959C163.74 36.8613 164.411 36.7669 164.971 36.5781C165.537 36.3828 166.003 36.1029 166.367 35.7383C166.732 35.3737 167.002 34.9277 167.178 34.4004C167.354 33.8665 167.441 33.2611 167.441 32.584V29.8887C167.441 29.3743 167.389 28.9219 167.285 28.5312C167.188 28.1406 167.044 27.8184 166.855 27.5645C166.673 27.304 166.458 27.1087 166.211 26.9785C165.97 26.8483 165.703 26.7832 165.41 26.7832C165.098 26.7832 164.821 26.8613 164.58 27.0176C164.339 27.1673 164.134 27.3724 163.965 27.6328C163.802 27.8932 163.675 28.1927 163.584 28.5312C163.499 28.8633 163.457 29.2116 163.457 29.5762C163.457 29.9408 163.499 30.2891 163.584 30.6211C163.669 30.9466 163.796 31.2363 163.965 31.4902C164.134 31.7376 164.346 31.9362 164.6 32.0859C164.854 32.2292 165.153 32.3008 165.498 32.3008C165.83 32.3008 166.126 32.2389 166.387 32.1152C166.654 31.985 166.878 31.8158 167.061 31.6074C167.249 31.3991 167.393 31.168 167.49 30.9141C167.594 30.6602 167.646 30.403 167.646 30.1426L168.574 30.6504C168.574 31.1061 168.477 31.5553 168.281 31.998C168.086 32.4408 167.812 32.8444 167.461 33.209C167.116 33.5671 166.715 33.8535 166.26 34.0684C165.804 34.2832 165.316 34.3906 164.795 34.3906C164.131 34.3906 163.542 34.2702 163.027 34.0293C162.513 33.7819 162.077 33.4434 161.719 33.0137C161.367 32.5775 161.1 32.0697 160.918 31.4902C160.736 30.9108 160.645 30.2826 160.645 29.6055C160.645 28.9154 160.755 28.2676 160.977 27.6621C161.204 27.0566 161.527 26.5228 161.943 26.0605C162.367 25.5983 162.871 25.237 163.457 24.9766C164.049 24.7096 164.707 24.5762 165.43 24.5762C166.152 24.5762 166.81 24.7161 167.402 24.9961C167.995 25.276 168.503 25.6732 168.926 26.1875C169.349 26.6953 169.674 27.304 169.902 28.0137C170.137 28.7233 170.254 29.5111 170.254 30.377V31.3535C170.254 32.278 170.153 33.1374 169.951 33.9316C169.756 34.7259 169.46 35.4453 169.062 36.0898C168.672 36.7279 168.184 37.2747 167.598 37.7305C167.018 38.1862 166.344 38.5345 165.576 38.7754C164.808 39.0163 163.949 39.1367 162.998 39.1367H162.773V36.8613ZM175.146 30.6699H176.65C177.132 30.6699 177.529 30.5885 177.842 30.4258C178.154 30.2565 178.385 30.0221 178.535 29.7227C178.691 29.4167 178.77 29.0618 178.77 28.6582C178.77 28.2936 178.698 27.9714 178.555 27.6914C178.418 27.4049 178.206 27.1836 177.92 27.0273C177.633 26.8646 177.272 26.7832 176.836 26.7832C176.491 26.7832 176.172 26.8516 175.879 26.9883C175.586 27.125 175.352 27.3171 175.176 27.5645C175 27.8118 174.912 28.1113 174.912 28.4629H172.09C172.09 27.6816 172.298 27.0013 172.715 26.4219C173.138 25.8424 173.704 25.39 174.414 25.0645C175.124 24.7389 175.905 24.5762 176.758 24.5762C177.721 24.5762 178.564 24.7324 179.287 25.0449C180.01 25.3509 180.573 25.8034 180.977 26.4023C181.38 27.0013 181.582 27.7435 181.582 28.6289C181.582 29.0781 181.478 29.5143 181.27 29.9375C181.061 30.3542 180.762 30.7318 180.371 31.0703C179.987 31.4023 179.518 31.6693 178.965 31.8711C178.411 32.0664 177.79 32.1641 177.1 32.1641H175.146V30.6699ZM175.146 32.8086V31.3535H177.1C177.874 31.3535 178.555 31.4414 179.141 31.6172C179.727 31.793 180.218 32.0469 180.615 32.3789C181.012 32.7044 181.312 33.0918 181.514 33.541C181.715 33.9837 181.816 34.4753 181.816 35.0156C181.816 35.6797 181.689 36.2721 181.436 36.793C181.182 37.3073 180.824 37.7435 180.361 38.1016C179.906 38.4596 179.372 38.7331 178.76 38.9219C178.148 39.1042 177.48 39.1953 176.758 39.1953C176.159 39.1953 175.57 39.1139 174.99 38.9512C174.417 38.7819 173.896 38.5312 173.428 38.1992C172.965 37.8607 172.594 37.4375 172.314 36.9297C172.041 36.4154 171.904 35.8066 171.904 35.1035H174.727C174.727 35.4681 174.818 35.7936 175 36.0801C175.182 36.3665 175.433 36.5911 175.752 36.7539C176.077 36.9167 176.439 36.998 176.836 36.998C177.285 36.998 177.669 36.9167 177.988 36.7539C178.314 36.5846 178.561 36.3503 178.73 36.0508C178.906 35.7448 178.994 35.39 178.994 34.9863C178.994 34.4655 178.9 34.0488 178.711 33.7363C178.522 33.4173 178.252 33.1829 177.9 33.0332C177.549 32.8835 177.132 32.8086 176.65 32.8086H175.146ZM186.396 32.5254L184.15 31.9883L184.961 24.7812H192.949V27.0566H187.275L186.924 30.2109C187.113 30.1003 187.399 29.9831 187.783 29.8594C188.167 29.7292 188.597 29.6641 189.072 29.6641C189.762 29.6641 190.374 29.7715 190.908 29.9863C191.442 30.2012 191.895 30.5137 192.266 30.9238C192.643 31.334 192.93 31.8353 193.125 32.4277C193.32 33.0202 193.418 33.6908 193.418 34.4395C193.418 35.071 193.32 35.6732 193.125 36.2461C192.93 36.8125 192.633 37.3203 192.236 37.7695C191.839 38.2122 191.341 38.5605 190.742 38.8145C190.143 39.0684 189.434 39.1953 188.613 39.1953C188.001 39.1953 187.409 39.1042 186.836 38.9219C186.27 38.7396 185.758 38.4694 185.303 38.1113C184.854 37.7533 184.492 37.3203 184.219 36.8125C183.952 36.2982 183.812 35.7122 183.799 35.0547H186.592C186.631 35.4583 186.735 35.8066 186.904 36.0996C187.08 36.3861 187.311 36.6074 187.598 36.7637C187.884 36.9199 188.219 36.998 188.604 36.998C188.962 36.998 189.268 36.9297 189.521 36.793C189.775 36.6562 189.98 36.4674 190.137 36.2266C190.293 35.9792 190.407 35.6927 190.479 35.3672C190.557 35.0352 190.596 34.6771 190.596 34.293C190.596 33.9089 190.55 33.5605 190.459 33.248C190.368 32.9355 190.228 32.6654 190.039 32.4375C189.85 32.2096 189.609 32.0339 189.316 31.9102C189.03 31.7865 188.695 31.7246 188.311 31.7246C187.79 31.7246 187.386 31.806 187.1 31.9688C186.82 32.1315 186.585 32.3171 186.396 32.5254ZM204.805 30.6406V33.1016C204.805 34.1693 204.691 35.0905 204.463 35.8652C204.235 36.6335 203.906 37.265 203.477 37.7598C203.053 38.248 202.549 38.6094 201.963 38.8438C201.377 39.0781 200.726 39.1953 200.01 39.1953C199.437 39.1953 198.903 39.1237 198.408 38.9805C197.913 38.8307 197.467 38.5996 197.07 38.2871C196.68 37.9746 196.341 37.5807 196.055 37.1055C195.775 36.6237 195.56 36.0508 195.41 35.3867C195.26 34.7227 195.186 33.9609 195.186 33.1016V30.6406C195.186 29.5729 195.299 28.6582 195.527 27.8965C195.762 27.1283 196.09 26.5 196.514 26.0117C196.943 25.5234 197.451 25.1654 198.037 24.9375C198.623 24.7031 199.274 24.5859 199.99 24.5859C200.563 24.5859 201.094 24.6608 201.582 24.8105C202.077 24.9538 202.523 25.1784 202.92 25.4844C203.317 25.7904 203.656 26.1842 203.936 26.666C204.215 27.1413 204.43 27.7109 204.58 28.375C204.73 29.0326 204.805 29.7878 204.805 30.6406ZM201.982 33.4727V30.2598C201.982 29.7454 201.953 29.2962 201.895 28.9121C201.842 28.528 201.761 28.2025 201.65 27.9355C201.54 27.6621 201.403 27.4408 201.24 27.2715C201.077 27.1022 200.892 26.9785 200.684 26.9004C200.475 26.8223 200.244 26.7832 199.99 26.7832C199.671 26.7832 199.388 26.8451 199.141 26.9688C198.9 27.0924 198.695 27.291 198.525 27.5645C198.356 27.8314 198.226 28.1895 198.135 28.6387C198.05 29.0814 198.008 29.6217 198.008 30.2598V33.4727C198.008 33.987 198.034 34.4395 198.086 34.8301C198.145 35.2207 198.229 35.556 198.34 35.8359C198.457 36.1094 198.594 36.334 198.75 36.5098C198.913 36.679 199.098 36.8027 199.307 36.8809C199.521 36.959 199.756 36.998 200.01 36.998C200.322 36.998 200.599 36.9362 200.84 36.8125C201.087 36.6823 201.296 36.4805 201.465 36.207C201.641 35.9271 201.771 35.5625 201.855 35.1133C201.94 34.6641 201.982 34.1172 201.982 33.4727ZM213.574 24.752V39H210.762V27.9941L207.383 29.0684V26.8516L213.271 24.752H213.574Z" fill="white"/>
<path fill-rule="evenodd" clip-rule="evenodd" d="M55.9707 20.0169C54.4741 18.5197 52.6962 17.3332 50.7392 16.5258C48.7822 15.7184 46.6849 15.306 44.5679 15.3125C35.6836 15.3125 28.4512 22.5087 28.4476 31.3554C28.4437 34.1724 29.1863 36.9402 30.5997 39.3769L28.3125 47.6875L36.8579 45.4566C39.2233 46.7381 41.8712 47.4087 44.5614 47.4078H44.5679C53.4515 47.4078 60.6832 40.2109 60.6875 31.3648C60.6929 29.2551 60.2786 27.1653 59.4689 25.2171C58.6591 23.269 57.47 21.5013 55.9707 20.0169V20.0169ZM44.5679 44.7H44.5621C42.1639 44.7007 39.8093 44.0589 37.7432 42.8413L37.2539 42.5523L32.183 43.8762L33.5366 38.9556L33.2179 38.4497C31.8769 36.3267 31.1664 33.8665 31.1692 31.3554C31.1692 24.0038 37.1824 18.0224 44.573 18.0224C48.1183 18.0161 51.521 19.4182 54.0326 21.9205C56.5442 24.4228 57.9591 27.8202 57.966 31.3655C57.9631 38.7178 51.9528 44.7 44.5679 44.7V44.7ZM51.9166 34.7136C51.5141 34.5127 49.5319 33.5429 49.1647 33.4092C48.7976 33.2755 48.5266 33.2083 48.2585 33.6101C47.9904 34.0119 47.2179 34.9109 46.983 35.1819C46.7482 35.4529 46.5133 35.4825 46.1108 35.2816C45.7083 35.0807 44.4097 34.658 42.8711 33.2921C41.6737 32.2291 40.8658 30.9168 40.6309 30.5157C40.396 30.1146 40.6056 29.8971 40.8072 29.6976C40.9886 29.5177 41.2097 29.2294 41.4114 28.9952C41.613 28.7611 41.6802 28.5934 41.8139 28.326C41.9476 28.0587 41.8811 27.8245 41.7806 27.6243C41.6802 27.4242 40.8744 25.4506 40.5391 24.6477C40.2118 23.8658 39.8801 23.972 39.6329 23.9598C39.398 23.9482 39.1271 23.9453 38.8604 23.9453C38.6565 23.9506 38.456 23.9979 38.2712 24.0842C38.0864 24.1705 37.9214 24.2939 37.7865 24.4468C37.4172 24.8486 36.3766 25.8199 36.3766 27.7913C36.3766 29.7627 37.8219 31.6705 38.0214 31.9379C38.2208 32.2053 40.8614 36.2543 44.9018 37.9909C45.6521 38.3122 46.4186 38.5939 47.1984 38.8349C48.1631 39.1399 49.0412 39.0972 49.7349 38.9939C50.5089 38.879 52.1197 38.0241 52.4543 37.0875C52.7889 36.151 52.7896 35.3488 52.6891 35.1819C52.5887 35.015 52.3199 34.9138 51.9166 34.7136V34.7136Z" fill="white"/>
</svg>
